<svg xmlns="http://www.w3.org/2000/svg" xmlns:xlink="http://www.w3.org/1999/xlink" id="b" viewBox="0 0 342.1 115.9"><defs><clipPath id="d"><rect x="264.1" y="33" width="22" height="81" style="fill:none;"></rect></clipPath></defs><g id="c"><g><g style="isolation:isolate; opacity:.5;"><path d="M341.1,72v14c0,15.4-12.5,28-28,28h-106v-42h134Z" style="fill:#f8d65f;"></path></g><path d="M1.1,64V28C1.1,12.6,13.6,0,29.1,0H342.1V64H1.1Z" style="fill:#f8d65f;"></path><g style="isolation:isolate;"><path d="M0,74c0-24.9,18.5-41.9,43.5-41.9s43.5,17,43.5,41.9-18.5,41.9-43.5,41.9S0,99,0,74Zm64.7,0c0-13.3-8.5-23.1-21.3-23.1s-21.3,9.8-21.3,23.1,8.5,23.1,21.3,23.1c12.8-.1,21.3-9.7,21.3-23.1Z" style="fill:#2a2830;"></path></g><g style="isolation:isolate;"><path d="M167.1,52h-24v62h-21V52h-24v-18h69v18Z" style="fill:#2a2830;"></path><path d="M244.1,96v18h-62v-19l33.9-43h-31.9v-18h59v18.2l-35.4,43.8h36.4Z" style="fill:#2a2830;"></path></g><rect x="264.1" y="33" width="22" height="81" style="fill:#fff;"></rect><g style="clip-path:url(#d);"><g><path d="M268.1,24c2.4,.3,9.8,.7,13.3,.5,4.8,2.2,3.6,7.6,4.7,11.1V115.2c-1.5,0-2.8,0-4-.1V37.7c-.1-1.8-1.3-13.3-3-13.8-2.2-.6-.6,1.3-.3,2.7,1.1,4.8,1.1,9.7,1.2,14.6,.7,25.2-.5,50.4,0,75.6,0,.1-1.2,.2-1.3,.2-.9-.2-.1-2.1-1.2,.1-2.3-1.1-2.8,1.1-4.3-.8-.9,.8-2.1,1.1-3.2,.4V31c-.4-1.1-.2-6.5-1.8-6.8-2.1-.5-.5,.9-.2,4.2V116h-4V25.4c-1.6-1.4,4-2.6,4-2.6v1.2h.1Z" style="fill:#2a2830;"></path><path d="M272.2,24.2c.4,.1,1.6,.1,1.7,.1,1.1,.4,2.3,6.4,1.7,6.6-.2,.1-1.5,.1-1.6-.2-.3-.3-.3-4.2-1.8-6.5h0Z" style="fill:#fcf9f7;"></path><path d="M274.2,51c.1,0,1.7,0,1.8,.1,.2,.2,.1,5-.2,5.1-.2,.1-1.5,0-1.6-.2-.2-.2-.3-4.9,0-5h0Z" style="fill:#fcf9f7;"></path><path d="M274.2,62c.1,0,1.5,0,1.6,.1,.2,.2,.1,5-.2,5.1-.2,.1-1.3,0-1.4-.2-.2-.2-.3-4.8,0-5Z" style="fill:#fcf9f7;"></path><path d="M274.4,37c.1,0,1.4,0,1.4,.1,.2,.2,.1,4.9-.2,5-.2,.1-1.3,0-1.4-.2-.2-.3-.2-4.8,.2-4.9Z" style="fill:#fcf9f7;"></path><path d="M274.4,83.5c.2-.1,1.5,0,1.6,.2s.1,3.8-.2,3.9c-.2,.1-1.5,0-1.6-.2-.2-.3-.2-3.8,.2-3.9Z" style="fill:#fcf9f7;"></path><path d="M274.4,103.1c.1,0,1.4,0,1.4,.1,.1,.1,.1,3.4-.1,3.5-.1,0-1.5,0-1.6-.1-.1-.1,0-3.4,.3-3.5Z" style="fill:#fcf9f7;"></path><path d="M274.2,73.5c2.7-.9,1.8,2.9,1.5,3-2.7,.8-1.8-2.9-1.5-3Z" style="fill:#fcf9f7;"></path><path d="M274.2,93.4c.1,0,1.7,0,1.8,.1,.1,.1,.1,2.7-.1,2.8-.1,0-1.7,0-1.8-.1-.1-.1,0-2.7,.1-2.8Z" style="fill:#fcf9f7;"></path></g></g><ellipse cx="43.7" cy="73.5" rx="22" ry="23.6" style="fill:#f8d65f;"></ellipse></g></g></svg>