<?xml version="1.0" encoding="utf-8"?>
<!-- Generator: Adobe Illustrator 26.5.0, SVG Export Plug-In . SVG Version: 6.00 Build 0)  -->
<svg version="1.1" id="Capa_1" xmlns="http://www.w3.org/2000/svg" xmlns:xlink="http://www.w3.org/1999/xlink" x="0px" y="0px"
	 viewBox="0 0 1080 1080" style="enable-background:new 0 0 1080 1080;" xml:space="preserve">
<style type="text/css">
	.st0{fill:#00B864;}
	.st1{fill:#414141;}
	.st2{fill:#FFFFFF;}
	.st3{fill:#00C540;}
	.st4{fill:#3C3C3C;}
	.st5{fill:#00E19F;}
</style>
<g>
	<path class="st0" d="M521.9-591.1c-11.1,0-16.7-5.8-16.7-17.5v-143.9c0-11.6,4.8-17.5,14.5-17.5c9.5,0,14.5,1.9,15.1,5.8l0.8,6.1
		c9-10.1,20.1-15.1,33.3-15.1c12,0,22.7,2.6,32,7.8c9.3,5.2,16.7,12.8,22.1,22.7c5.4,10,8.1,22.1,8.1,36.4c0,14.1-2.7,26.1-8.1,36.1
		c-5.4,10-12.7,17.5-22.1,22.7c-9.3,5.2-20,7.8-32,7.8c-11.5,0-21.6-4-30.4-11.9v42.9C538.6-596.9,533-591.1,521.9-591.1z
		 M567.7-669.6c8.5,0,15.6-3.1,21.3-9.4c5.7-6.3,8.6-15.3,8.6-27.1c0-12-2.9-21.1-8.6-27.4c-5.7-6.3-12.8-9.4-21.3-9.4
		c-8.5,0-15.5,3.1-21.2,9.4c-5.6,6.3-8.5,15.4-8.5,27.4c0,11.8,2.8,20.9,8.5,27.1C552.2-672.8,559.2-669.6,567.7-669.6z"/>
	<path class="st0" d="M696.2-640.8c-13.9,0.7-25.5-2.3-34.8-9c-9.3-6.7-13.9-16.4-13.9-29.1c0-9,2.7-16.7,8.1-23.1
		c5.4-6.4,12.3-11.5,20.9-15.1c8.6-3.6,17.4-5.5,26.6-5.7c4.1-0.4,7.9,0,11.6,0.9c3.7,1,7.1,2.2,10.3,3.8v-8.5
		c0-7.4-1.6-12.2-4.8-14.4c-3.2-2.2-7.7-3.3-13.5-3.3c-4.8,0-9.7,0.6-14.7,1.7c-5,1.1-9.9,2.7-14.7,4.6c-5.1,2.1-9.5,2.9-13.1,2.2
		c-3.6-0.6-6.7-3-9.1-7c-2.3-4.1-2.8-8-1.6-11.8c1.2-3.8,4.5-6.8,9.8-9.1c6.3-2.8,13.2-5.1,20.5-6.9c7.3-1.8,14.9-2.6,22.9-2.6
		c16.4,0,28.8,3.4,37.3,10.1c8.5,6.7,12.7,18.9,12.7,36.5v55.5c0,1.8,0.1,3,0.3,3.7c0.5,2.5,1.5,4.1,3,4.9c1.5,0.8,3,1.3,4.6,1.6
		c1.6,0.3,3,0.6,4.1,1.1c1.1,0.4,1.7,1.5,1.7,3.3c0,3.4-0.9,6.3-2.8,9s-4.9,4.4-9.1,5.3c-1.9,0.4-4,0.7-6.1,0.9
		c-2.1,0.3-4.3,0.4-6.6,0.4c-10.4,0-17-3.5-19.8-10.6C718-645.2,708-641.7,696.2-640.8z M695.4-669.4c9.3-0.5,16.8-2.3,22.4-5.4
		c5.6-3.1,8.2-7.4,7.8-12.8c-0.2-4.1-2.2-6.7-6-7.9c-3.8-1.2-8.4-1.7-13.9-1.3c-8.1,0.4-14.5,2.4-19.3,6.2c-4.8,3.8-7.1,7.8-6.9,12
		c0.2,3,1.5,5.3,4.1,7C686.2-669.9,690.1-669.2,695.4-669.4z"/>
	<path class="st0" d="M814.2-788.9c-5.6,0-10.4-2-14.4-6.1c-4-4.1-6-8.9-6-14.5c0-5.6,2-10.4,6-14.4c4-4,8.8-6,14.4-6
		c5.6,0,10.4,2,14.4,6c4,4,6,8.8,6,14.4c0,5.6-2,10.5-6,14.5C824.6-791,819.8-788.9,814.2-788.9z M814.5-642.4
		c-11.1,0-16.7-5.8-16.7-17.5v-92.6c0-11.6,5.6-17.5,16.7-17.5c11.1,0,16.7,5.8,16.7,17.5v92.6C831.1-648.2,825.6-642.4,814.5-642.4
		z"/>
</g>
<g>
	<path class="st1" d="M561.8-595.5c-0.9,0-1.8-0.1-2.6-0.3c-0.8-0.2-1.6-0.5-2.4-1c-0.6-0.4-0.9-0.8-1-1.3c0-0.5,0.1-1,0.5-1.4
		c0.4-0.4,0.8-0.6,1.3-0.6c0.4,0,1,0.2,1.6,0.5c0.8,0.5,1.8,0.7,2.8,0.7c0.8,0,1.4-0.1,1.7-0.3c0.3-0.2,0.5-0.6,0.5-1.1
		c0-0.2-0.1-0.4-0.2-0.6c-0.2-0.2-0.5-0.4-1-0.5c-0.5-0.2-1.3-0.3-2.3-0.5c-1.6-0.3-2.8-0.8-3.6-1.5c-0.8-0.7-1.3-1.8-1.3-3.3
		c0-1,0.3-1.8,0.8-2.5s1.2-1.3,2.1-1.7c0.9-0.4,1.9-0.6,3-0.6c1.5,0,2.9,0.3,4.1,0.8c0.6,0.3,1,0.7,1.1,1.2c0.1,0.5,0,1-0.4,1.4
		c-0.4,0.5-0.8,0.7-1.2,0.7c-0.4,0-1-0.1-1.6-0.3c-0.3-0.1-0.6-0.2-1-0.3c-0.3-0.1-0.7-0.1-1-0.1c-0.7,0-1.2,0.1-1.4,0.3
		c-0.3,0.2-0.4,0.5-0.4,0.8c0,0.2,0.1,0.4,0.2,0.6c0.1,0.2,0.4,0.3,0.8,0.5c0.4,0.2,1.1,0.3,2,0.6c1.8,0.4,3.1,1,4,1.8
		c0.9,0.8,1.4,1.9,1.4,3.3c0,1.6-0.6,2.8-1.8,3.6S563.8-595.5,561.8-595.5z"/>
	<path class="st1" d="M577.8-595.5c-1.4,0-2.7-0.3-3.9-1c-1.1-0.7-2-1.6-2.7-2.8c-0.7-1.2-1-2.6-1-4.3c0-1.7,0.3-3.1,1-4.3
		c0.7-1.2,1.6-2.2,2.7-2.8c1.1-0.7,2.4-1,3.9-1c1.5,0,2.8,0.3,3.9,1c1.1,0.7,2,1.6,2.7,2.8c0.7,1.2,1,2.6,1,4.3c0,1.6-0.3,3.1-1,4.3
		c-0.7,1.2-1.6,2.2-2.7,2.8C580.6-595.8,579.3-595.5,577.8-595.5z M577.8-599.2c1,0,1.9-0.4,2.5-1.1c0.7-0.8,1-1.9,1-3.3
		c0-1.5-0.3-2.6-1-3.3c-0.7-0.8-1.5-1.1-2.5-1.1s-1.9,0.4-2.5,1.1c-0.6,0.8-0.9,1.9-0.9,3.3c0,1.4,0.3,2.5,0.9,3.3
		C576-599.5,576.8-599.2,577.8-599.2z"/>
	<path class="st1" d="M591.9-595.9c-1.4,0-2-0.7-2-2.1v-9.9h-0.8c-1.4,0-2.1-0.6-2.1-1.7s0.5-1.7,1.4-1.7h1.4v-2.7
		c0-1.9,0.4-3.2,1.3-4c0.9-0.7,2.2-1.1,3.9-1.1c0.9,0,1.6,0.1,2.2,0.3c0.6,0.2,0.9,0.7,0.9,1.5c0,0.5-0.1,0.9-0.3,1.2
		c-0.2,0.4-0.6,0.5-1.3,0.5c-0.1,0-0.3,0-0.5,0s-0.3,0-0.4,0c-0.6,0-1,0.2-1.3,0.5c-0.3,0.4-0.4,0.9-0.4,1.5v2.2h2.1
		c1.4,0,2.1,0.6,2.1,1.7s-0.7,1.7-2.1,1.7h-2.1v9.9C593.9-596.6,593.3-595.9,591.9-595.9z"/>
	<path class="st1" d="M606.7-595.5c-1,0-1.9-0.1-2.6-0.3c-0.7-0.2-1.3-0.6-1.6-1.3c-0.4-0.6-0.6-1.5-0.6-2.6v-8.1h-0.8
		c-1.4,0-2.1-0.6-2.1-1.7c0-0.6,0.1-1,0.4-1.3c0.3-0.3,0.8-0.5,1.6-0.5h0.8v-3.2c0-0.7,0.2-1.2,0.5-1.6c0.4-0.4,0.9-0.5,1.5-0.5
		c1.3,0,2,0.7,2,2.1v3.2h2.1c1.4,0,2.1,0.6,2.1,1.7s-0.7,1.7-2.1,1.7h-2.1v7.1c0,0.7,0.2,1.1,0.5,1.4c0.3,0.2,0.8,0.4,1.4,0.4
		c0.7,0,1.3,0.1,1.7,0.3c0.4,0.2,0.6,0.7,0.6,1.4c0,0.6-0.2,1-0.5,1.3c-0.3,0.3-0.7,0.5-1.3,0.5
		C607.8-595.5,607.2-595.5,606.7-595.5z"/>
	<path class="st1" d="M617.6-595.9c-1.2,0-1.9-0.6-2.3-1.8l-3.2-11.3c-0.2-0.7-0.2-1.3,0-1.7c0.2-0.4,0.6-0.6,1.2-0.6h0
		c1.2,0,2,0.6,2.3,1.8l2,8l2.1-8c0.3-1.2,1-1.8,2.2-1.8c1.1,0,1.8,0.6,2.1,1.8l2,8l2.1-8c0.3-1.2,1.1-1.8,2.3-1.8
		c0.6,0,1,0.2,1.3,0.6c0.2,0.4,0.2,1,0,1.7l-3.2,11.3c-0.4,1.2-1.1,1.8-2.3,1.8c-1.2,0-1.9-0.6-2.2-1.8l-2.1-8.1l-2.1,8.1
		C619.5-596.5,618.7-595.9,617.6-595.9z"/>
	<path class="st1" d="M640.1-595.7c-1.7,0.1-3.1-0.3-4.2-1.1c-1.1-0.8-1.7-2-1.7-3.5c0-1.1,0.3-2,1-2.8c0.7-0.8,1.5-1.4,2.5-1.8
		c1-0.4,2.1-0.7,3.2-0.7c0.5,0,1,0,1.4,0.1c0.5,0.1,0.9,0.3,1.3,0.5v-1c0-0.9-0.2-1.5-0.6-1.8c-0.4-0.3-0.9-0.4-1.6-0.4
		c-0.6,0-1.2,0.1-1.8,0.2c-0.6,0.1-1.2,0.3-1.8,0.6c-0.6,0.3-1.2,0.3-1.6,0.3c-0.4-0.1-0.8-0.4-1.1-0.9c-0.3-0.5-0.3-1-0.2-1.4
		c0.1-0.5,0.5-0.8,1.2-1.1c0.8-0.3,1.6-0.6,2.5-0.8c0.9-0.2,1.8-0.3,2.8-0.3c2,0,3.5,0.4,4.5,1.2c1,0.8,1.5,2.3,1.5,4.4v6.7
		c0,0.2,0,0.4,0,0.5c0.1,0.3,0.2,0.5,0.4,0.6c0.2,0.1,0.4,0.2,0.6,0.2c0.2,0,0.4,0.1,0.5,0.1c0.1,0.1,0.2,0.2,0.2,0.4
		c0,0.4-0.1,0.8-0.3,1.1s-0.6,0.5-1.1,0.6c-0.2,0-0.5,0.1-0.7,0.1c-0.3,0-0.5,0-0.8,0c-1.3,0-2.1-0.4-2.4-1.3
		C642.8-596.2,641.6-595.8,640.1-595.7z M640-599.1c1.1-0.1,2-0.3,2.7-0.7c0.7-0.4,1-0.9,0.9-1.6c0-0.5-0.3-0.8-0.7-1
		c-0.5-0.1-1-0.2-1.7-0.2c-1,0-1.8,0.3-2.3,0.8c-0.6,0.5-0.9,0.9-0.8,1.5c0,0.4,0.2,0.6,0.5,0.9C638.9-599.2,639.4-599.1,640-599.1z
		"/>
	<path class="st1" d="M654-595.9c-1.3,0-2-0.7-2-2.1v-11.3c0-1.4,0.7-2.1,2.1-2.1c0.4,0,0.9,0.1,1.2,0.3c0.4,0.2,0.5,0.6,0.5,1.3
		v0.5c0.4-0.8,1-1.4,1.8-1.8c0.8-0.5,1.6-0.7,2.5-0.7c0.7,0,1.2,0.2,1.6,0.6c0.4,0.4,0.5,0.9,0.5,1.6c0,0.6-0.2,1-0.5,1.3
		c-0.3,0.3-0.7,0.4-1,0.4c-0.2,0-0.4,0-0.6,0c-0.2,0-0.4,0-0.7,0c-1,0-1.8,0.3-2.5,0.9c-0.7,0.6-1,1.6-1,2.8v6.2
		C656-596.6,655.4-595.9,654-595.9z"/>
	<path class="st1" d="M671.1-595.5c-2.3,0-4.1-0.7-5.5-2c-1.4-1.3-2.1-3.4-2.1-6.1c0-1.7,0.3-3.1,0.9-4.4c0.6-1.2,1.5-2.1,2.6-2.8
		c1.1-0.7,2.4-1,3.9-1c1.5,0,2.7,0.3,3.7,1c1,0.7,1.8,1.5,2.3,2.6c0.5,1,0.8,2.1,0.8,3.3c0,0.9-0.2,1.5-0.5,1.8
		c-0.4,0.3-0.9,0.4-1.6,0.4h-8.2c0.1,1.4,0.5,2.4,1.2,2.9c0.7,0.5,1.5,0.8,2.6,0.8c1.1,0,2-0.3,2.7-1c0.5-0.5,0.9-0.8,1.4-1
		c0.4-0.1,0.9-0.1,1.3,0.3c0.5,0.3,0.8,0.8,0.8,1.3c0.1,0.5-0.2,1.1-0.7,1.6c-0.7,0.8-1.6,1.4-2.5,1.7
		C673.3-595.7,672.3-595.5,671.1-595.5z M667.6-605.8h6.1c-0.4-1.8-1.4-2.8-2.9-2.8c-0.9,0-1.6,0.2-2.1,0.6
		C668.2-607.5,667.8-606.8,667.6-605.8z"/>
	<path class="st1" d="M693.6-595.9c-1.4,0-2-0.7-2-2.1v-9.9h-0.8c-1.4,0-2.1-0.6-2.1-1.7s0.5-1.7,1.4-1.7h1.4v-2.7
		c0-1.9,0.4-3.2,1.3-4c0.9-0.7,2.2-1.1,3.9-1.1c0.9,0,1.6,0.1,2.2,0.3c0.6,0.2,0.9,0.7,0.9,1.5c0,0.5-0.1,0.9-0.3,1.2
		c-0.2,0.4-0.6,0.5-1.3,0.5c-0.1,0-0.3,0-0.5,0c-0.2,0-0.3,0-0.4,0c-0.6,0-1,0.2-1.3,0.5c-0.3,0.4-0.4,0.9-0.4,1.5v2.2h2.1
		c1.4,0,2.1,0.6,2.1,1.7s-0.7,1.7-2.1,1.7h-2.1v9.9C695.6-596.6,694.9-595.9,693.6-595.9z"/>
	<path class="st1" d="M704.4-613.7c-0.7,0-1.3-0.2-1.8-0.7c-0.5-0.5-0.7-1.1-0.7-1.8s0.2-1.3,0.7-1.8c0.5-0.5,1.1-0.7,1.8-0.7
		c0.7,0,1.3,0.2,1.8,0.7c0.5,0.5,0.7,1.1,0.7,1.8s-0.2,1.3-0.7,1.8C705.7-613.9,705.1-613.7,704.4-613.7z M704.4-595.9
		c-1.4,0-2-0.7-2-2.1v-11.3c0-1.4,0.7-2.1,2-2.1c1.4,0,2,0.7,2,2.1v11.3C706.5-596.6,705.8-595.9,704.4-595.9z"/>
	<path class="st1" d="M712.6-595.9c-1.3,0-2-0.7-2-2.1v-11.3c0-1.4,0.6-2.1,1.8-2.1c1.2,0,1.9,0.3,1.9,0.9l0.1,0.9
		c0.4-0.6,1-1,1.7-1.5c0.7-0.4,1.5-0.6,2.4-0.6c1.6,0,2.9,0.5,3.9,1.5c1,1,1.5,2.6,1.5,4.6v7.7c0,1.4-0.7,2.1-2,2.1
		c-1.3,0-2-0.7-2-2.1v-6.7c0-1.1-0.2-2-0.7-2.6c-0.4-0.6-1-0.9-1.8-0.9c-0.8,0-1.5,0.3-2,0.9c-0.5,0.6-0.8,1.5-0.8,2.8v6.4
		C714.7-596.6,714-595.9,712.6-595.9z"/>
	<path class="st1" d="M733-595.7c-1.7,0.1-3.1-0.3-4.2-1.1c-1.1-0.8-1.7-2-1.7-3.5c0-1.1,0.3-2,1-2.8c0.7-0.8,1.5-1.4,2.5-1.8
		c1-0.4,2.1-0.7,3.2-0.7c0.5,0,1,0,1.4,0.1c0.5,0.1,0.9,0.3,1.3,0.5v-1c0-0.9-0.2-1.5-0.6-1.8c-0.4-0.3-0.9-0.4-1.6-0.4
		c-0.6,0-1.2,0.1-1.8,0.2c-0.6,0.1-1.2,0.3-1.8,0.6c-0.6,0.3-1.2,0.3-1.6,0.3c-0.4-0.1-0.8-0.4-1.1-0.9c-0.3-0.5-0.3-1-0.2-1.4
		c0.1-0.5,0.5-0.8,1.2-1.1c0.8-0.3,1.6-0.6,2.5-0.8c0.9-0.2,1.8-0.3,2.8-0.3c2,0,3.5,0.4,4.5,1.2c1,0.8,1.5,2.3,1.5,4.4v6.7
		c0,0.2,0,0.4,0,0.5c0.1,0.3,0.2,0.5,0.4,0.6c0.2,0.1,0.4,0.2,0.6,0.2c0.2,0,0.4,0.1,0.5,0.1c0.1,0.1,0.2,0.2,0.2,0.4
		c0,0.4-0.1,0.8-0.3,1.1s-0.6,0.5-1.1,0.6c-0.2,0-0.5,0.1-0.7,0.1c-0.3,0-0.5,0-0.8,0c-1.3,0-2.1-0.4-2.4-1.3
		C735.7-596.2,734.5-595.8,733-595.7z M732.9-599.1c1.1-0.1,2-0.3,2.7-0.7c0.7-0.4,1-0.9,0.9-1.6c0-0.5-0.3-0.8-0.7-1
		c-0.5-0.1-1-0.2-1.7-0.2c-1,0-1.8,0.3-2.3,0.8c-0.6,0.5-0.9,0.9-0.8,1.5c0,0.4,0.2,0.6,0.5,0.9
		C731.8-599.2,732.3-599.1,732.9-599.1z"/>
	<path class="st1" d="M746.9-595.9c-1.3,0-2-0.7-2-2.1v-11.3c0-1.4,0.6-2.1,1.8-2.1c1.2,0,1.9,0.3,1.9,0.9l0.1,0.9
		c0.4-0.6,1-1,1.7-1.5c0.7-0.4,1.5-0.6,2.4-0.6c1.6,0,2.9,0.5,3.9,1.5c1,1,1.5,2.6,1.5,4.6v7.7c0,1.4-0.7,2.1-2,2.1
		c-1.3,0-2-0.7-2-2.1v-6.7c0-1.1-0.2-2-0.7-2.6c-0.4-0.6-1-0.9-1.8-0.9c-0.8,0-1.5,0.3-2,0.9c-0.5,0.6-0.8,1.5-0.8,2.8v6.4
		C748.9-596.6,748.3-595.9,746.9-595.9z"/>
	<path class="st1" d="M768.7-595.5c-1.4,0-2.7-0.3-3.9-1s-2-1.6-2.7-2.8c-0.7-1.2-1-2.6-1-4.3c0-1.7,0.3-3.1,1-4.3
		c0.7-1.2,1.6-2.2,2.7-2.8c1.1-0.7,2.4-1,3.9-1c1.8,0,3.3,0.5,4.6,1.5c0.6,0.4,0.8,0.9,0.8,1.4c-0.1,0.5-0.3,1-0.9,1.3
		c-0.5,0.4-1,0.5-1.3,0.5c-0.4,0-0.9-0.3-1.5-0.6c-0.5-0.3-1.1-0.5-1.7-0.5c-1,0-1.9,0.4-2.5,1.1c-0.6,0.8-0.9,1.9-0.9,3.3
		c0,1.4,0.3,2.5,0.9,3.3c0.6,0.8,1.5,1.1,2.5,1.1c0.6,0,1.2-0.1,1.7-0.4c0.6-0.3,1-0.6,1.4-0.7c0.4-0.1,0.9,0,1.4,0.4
		c0.5,0.4,0.8,0.8,0.9,1.3c0.1,0.5-0.2,1-0.7,1.4C772.1-596,770.6-595.5,768.7-595.5z"/>
	<path class="st1" d="M780.3-613.7c-0.7,0-1.3-0.2-1.8-0.7c-0.5-0.5-0.7-1.1-0.7-1.8s0.2-1.3,0.7-1.8c0.5-0.5,1.1-0.7,1.8-0.7
		c0.7,0,1.3,0.2,1.8,0.7c0.5,0.5,0.7,1.1,0.7,1.8s-0.2,1.3-0.7,1.8C781.5-613.9,781-613.7,780.3-613.7z M780.3-595.9
		c-1.4,0-2-0.7-2-2.1v-11.3c0-1.4,0.7-2.1,2-2.1c1.4,0,2,0.7,2,2.1v11.3C782.3-596.6,781.6-595.9,780.3-595.9z"/>
	<path class="st1" d="M793.3-595.5c-2.3,0-4.1-0.7-5.5-2c-1.4-1.3-2.1-3.4-2.1-6.1c0-1.7,0.3-3.1,0.9-4.4c0.6-1.2,1.5-2.1,2.6-2.8
		c1.1-0.7,2.4-1,3.9-1c1.5,0,2.7,0.3,3.7,1c1,0.7,1.8,1.5,2.3,2.6c0.5,1,0.8,2.1,0.8,3.3c0,0.9-0.2,1.5-0.5,1.8
		c-0.4,0.3-0.9,0.4-1.6,0.4h-8.2c0.1,1.4,0.5,2.4,1.2,2.9c0.7,0.5,1.5,0.8,2.6,0.8c1.1,0,2-0.3,2.7-1c0.5-0.5,0.9-0.8,1.4-1
		c0.4-0.1,0.9-0.1,1.3,0.3c0.5,0.3,0.8,0.8,0.8,1.3c0.1,0.5-0.2,1.1-0.7,1.6c-0.7,0.8-1.6,1.4-2.5,1.7
		C795.5-595.7,794.5-595.5,793.3-595.5z M789.8-605.8h6.1c-0.4-1.8-1.4-2.8-2.9-2.8c-0.9,0-1.6,0.2-2.1,0.6
		C790.4-607.5,790-606.8,789.8-605.8z"/>
	<path class="st1" d="M805.2-595.9c-1.3,0-2-0.7-2-2.1v-11.3c0-1.4,0.7-2.1,2.1-2.1c0.4,0,0.9,0.1,1.2,0.3c0.4,0.2,0.5,0.6,0.5,1.3
		v0.5c0.4-0.8,1-1.4,1.8-1.8c0.8-0.5,1.6-0.7,2.5-0.7c0.7,0,1.2,0.2,1.6,0.6c0.4,0.4,0.5,0.9,0.5,1.6c0,0.6-0.2,1-0.5,1.3
		c-0.3,0.3-0.7,0.4-1,0.4c-0.2,0-0.4,0-0.6,0c-0.2,0-0.4,0-0.7,0c-1,0-1.8,0.3-2.5,0.9c-0.7,0.6-1,1.6-1,2.8v6.2
		C807.2-596.6,806.6-595.9,805.2-595.9z"/>
	<path class="st1" d="M822.2-595.5c-1.4,0-2.7-0.3-3.9-1c-1.1-0.7-2-1.6-2.7-2.8c-0.7-1.2-1-2.6-1-4.3c0-1.7,0.3-3.1,1-4.3
		c0.7-1.2,1.6-2.2,2.7-2.8c1.1-0.7,2.4-1,3.9-1c1.5,0,2.8,0.3,3.9,1c1.1,0.7,2,1.6,2.7,2.8c0.7,1.2,1,2.6,1,4.3c0,1.6-0.3,3.1-1,4.3
		c-0.7,1.2-1.5,2.2-2.7,2.8C825-595.8,823.7-595.5,822.2-595.5z M822.2-599.2c1,0,1.9-0.4,2.5-1.1c0.7-0.8,1-1.9,1-3.3
		c0-1.5-0.3-2.6-1-3.3c-0.7-0.8-1.5-1.1-2.5-1.1c-1,0-1.9,0.4-2.5,1.1c-0.6,0.8-0.9,1.9-0.9,3.3c0,1.4,0.3,2.5,0.9,3.3
		C820.4-599.5,821.2-599.2,822.2-599.2z"/>
</g>
<rect class="st0" width="1080" height="1080"/>
<rect x="-1485.9" y="-308.9" class="st0" width="99.9" height="99.9"/>
<g>
	<path class="st0" d="M459.1-657.8C459.1-657.8,459-657.8,459.1-657.8l-0.3,0.8C458.9-657.3,459-657.5,459.1-657.8z"/>
	<path class="st0" d="M458.1-655c-1.9-0.4,0.6,0-1.3-0.6c-3.1-1-6.1-2.2-8.9-3.6c-1,3.4-2.1,6.8-3.1,10.3
		c-2.7,9.1-5.5,18.2-8.1,27.3c-0.5,1.8-1.3,2.5-3.3,2.5c-67.2-0.1-134.4-0.1-201.6,0c-1.5,0-2.6-0.1-3.1-2
		c-4.3-14.2-8.6-28.3-13-42.4c-0.1-0.2,0-0.4,0-0.3c4-2.7,7.9-5.3,12-8.1c8.1,9.3,18.6,14.8,31.4,15.1c12.9,0.3,23.6-4.6,32.6-14.2
		c20.4,25.3,59.7,26.9,81.4,0.3c18.1,19,44.7,17.4,60.7,2.3c-2.7-2.3-5.3-4.8-7.7-7.5c-5.4,5.4-12.4,8.3-20.9,8.4
		c-11.9,0.1-21-5.3-27-15.5c-1.3-2.1-2.6-3.9-5.4-3.8c-2.9,0-4.3,1.9-5.4,4.2c-13.3,26.7-52.5,27.2-67.6,3.9
		c-0.9-1.4-1.7-2.8-2.4-4.2c-1.1-2.1-2.5-3.7-5.1-3.8c-2.6,0-4,1.5-5.2,3.6c-7.6,13.4-22.8,19.2-37.4,14.1
		c-7.4-2.6-12.9-7.4-16.5-14.3c-1.2-2.3-2.5-4.3-5.3-4.4c-2.8-0.1-4.3,1.8-5.6,4c-5.1,8.7-15,12.8-24.4,10.1
		c-9.6-2.8-15.8-11.4-15.6-21.3c0.2-9.7,7.2-18,17-20.2c1.4-0.3,2.8-0.4,4.8-0.6c6.9,2.8,9.2-2,11.7-7.6c7.4-16.3,20-27.9,35.2-36.8
		c17.4-10.2,36.5-15.8,56.4-18.2c25.7-3.1,51.2-1.9,76.2,5.4c12.6,3.7,24.5,8.7,35.2,15.8c0.9-1.6,2-3.1,3-4.6
		c1.1-1.5,3.2-1.8,4.5-3.2c-11.7-8-24.6-13.8-38.3-17.9c-24.5-7.3-49.5-9.2-74.9-6.9c-21.7,2-42.4,7.2-61.8,17.2
		c-19.3,10.1-35.1,23.8-44.9,43.6c-1,1.9-2,2.5-4.1,2.6c-17.5,0.9-30.9,15-30.8,32.3c0.1,17.2,13.3,31,30.8,31.9
		c2.1,0.1,2.7,1.1,3.2,2.8c4.5,15,9.1,30.1,13.6,45.1c1.5,5.1,2.7,5.9,8.1,5.9c35,0,70.1,0,105.1,0c35.1,0,70.3,0,105.4,0
		c5.2,0,6.5-0.9,7.9-5.8c4.1-13.6,8.4-27.1,12.3-40.7c0-0.1,0.1-0.2,0.1-0.4L458.1-655z"/>
</g>
<g>
	<path class="st0" d="M460.6-662.9c-2.1-0.7-6.3-2.1-8.3-3c-22.1-10.2-37.4-32.5-37.4-58.3c0-11.3,2.9-21.9,8-31.1
		c1.1-1.9,3.7-7.4,5-9.2l-3.3-2c0,0-4.4-2.2-5.5-0.5c-8.7,12.1-13.8,26.9-13.8,42.8c0,32.7,21.4,60.5,50.9,70.1
		c1.9,0.6-0.7,0.2,1.3,0.7L460.6-662.9z"/>
</g>
<path class="st2" d="M283.8-723.2c0.6-0.3,1.8-0.9,3-1.6c0.5-0.3,0.8-0.9,1.1-1.5c3.5-7,7.1-14,10.5-21.1c1.4-2.9,0.5-5.7-2-7.2
	c-2.4-1.4-5.7-0.8-7,1.7c-3.9,7.5-7.7,15.1-11.3,22.7C276.5-726.8,279.3-723.2,283.8-723.2z M374.8-727.8c-0.2-0.2-0.4-0.4-0.6-0.6
	c-0.1-0.4-0.1-0.8-0.2-1.2c-3.8-7.8-7.5-15.6-11.6-23.2c-1.3-2.4-4-2.7-6.5-1.5c-2.3,1.1-3.7,3.9-2.7,6.2
	c3.6,7.6,7.4,15.2,11.3,22.7c1.2,2.2,3.7,3.1,5.8,2C372.1-724.4,373.3-726.3,374.8-727.8z M320.5-739.5c0,3.5-0.1,6.9,0,10.4
	c0.1,3.6,2.1,5.8,5.3,5.9c3.3,0.1,5.5-2.2,5.5-6c0.1-6.7,0.1-13.5,0-20.2c0-3.6-2.1-5.8-5.3-5.9c-3.3-0.1-5.4,2.2-5.5,6
	C320.4-746,320.5-742.8,320.5-739.5z"/>
<path class="st0" d="M283.8-723.2c-4.5,0-7.3-3.6-5.8-6.9c3.6-7.7,7.4-15.2,11.3-22.7c1.3-2.5,4.6-3,7-1.7c2.5,1.4,3.5,4.2,2,7.2
	c-3.4,7.1-7,14.1-10.5,21.1c-0.3,0.5-0.6,1.2-1.1,1.5C285.6-724.1,284.4-723.5,283.8-723.2z"/>
<path class="st0" d="M374.8-727.8c-1.5,1.5-2.7,3.4-4.5,4.3c-2.2,1.1-4.7,0.2-5.8-2c-3.9-7.5-7.7-15.1-11.3-22.7
	c-1.1-2.2,0.4-5.1,2.7-6.2c2.5-1.2,5.2-0.9,6.5,1.5c4.1,7.6,7.8,15.5,11.6,23.2c0.2,0.4,0.2,0.8,0.2,1.2
	C374.4-728.3,374.6-728,374.8-727.8z"/>
<path class="st0" d="M320.5-739.5c0-3.3-0.1-6.5,0-9.8c0.1-3.7,2.2-6,5.5-6c3.1,0.1,5.2,2.3,5.3,5.9c0.1,6.7,0.1,13.5,0,20.2
	c0,3.7-2.3,6-5.5,6c-3.1-0.1-5.2-2.3-5.3-5.9C320.4-732.6,320.5-736,320.5-739.5z"/>
<g>
	<path class="st2" d="M538.3,662.8c-11.1,0-16.7-5.8-16.7-17.5V501.5c0-11.6,4.8-17.5,14.5-17.5c9.5,0,14.5,1.9,15.1,5.8l0.8,6.1
		c9-10.1,20.1-15.1,33.3-15.1c12,0,22.7,2.6,32,7.8c9.3,5.2,16.7,12.8,22.1,22.7c5.4,10,8.1,22.1,8.1,36.4c0,14.1-2.7,26.1-8.1,36.1
		c-5.4,10-12.7,17.5-22.1,22.7c-9.3,5.2-20,7.8-32,7.8c-11.5,0-21.6-4-30.4-11.9v42.9C555,657,549.4,662.8,538.3,662.8z
		 M584.1,584.3c8.5,0,15.6-3.1,21.3-9.4c5.7-6.3,8.6-15.3,8.6-27.1c0-12-2.9-21.1-8.6-27.4c-5.7-6.3-12.8-9.4-21.3-9.4
		c-8.5,0-15.5,3.1-21.2,9.4c-5.6,6.3-8.5,15.4-8.5,27.4c0,11.8,2.8,20.9,8.5,27.1C568.6,581.2,575.6,584.3,584.1,584.3z"/>
	<path class="st2" d="M712.6,613.1c-13.9,0.7-25.5-2.3-34.8-9c-9.3-6.7-13.9-16.4-13.9-29.1c0-9,2.7-16.7,8.1-23.1
		c5.4-6.4,12.3-11.5,20.9-15.1c8.6-3.6,17.4-5.5,26.6-5.7c4.1-0.4,7.9,0,11.6,0.9c3.7,1,7.1,2.2,10.3,3.8v-8.5
		c0-7.4-1.6-12.2-4.8-14.4c-3.2-2.2-7.7-3.3-13.5-3.3c-4.8,0-9.7,0.6-14.7,1.7c-5,1.1-9.9,2.7-14.7,4.6c-5.1,2.1-9.5,2.9-13.1,2.2
		c-3.6-0.6-6.7-3-9.1-7c-2.3-4.1-2.8-8-1.6-11.8c1.2-3.8,4.5-6.8,9.8-9.1c6.3-2.8,13.2-5.1,20.5-6.9c7.3-1.8,14.9-2.6,22.9-2.6
		c16.4,0,28.8,3.4,37.3,10.1c8.5,6.7,12.7,18.9,12.7,36.5V583c0,1.8,0.1,3,0.3,3.7c0.5,2.5,1.5,4.1,3,4.9c1.5,0.8,3,1.3,4.6,1.6
		c1.6,0.3,3,0.6,4.1,1.1c1.1,0.4,1.7,1.5,1.7,3.3c0,3.4-0.9,6.3-2.8,9c-1.9,2.6-4.9,4.4-9.1,5.3c-1.9,0.4-4,0.7-6.1,0.9
		c-2.1,0.3-4.3,0.4-6.6,0.4c-10.4,0-17-3.5-19.8-10.6C734.4,608.7,724.5,612.2,712.6,613.1z M711.8,584.5c9.3-0.5,16.8-2.3,22.4-5.4
		c5.6-3.1,8.2-7.4,7.8-12.8c-0.2-4.1-2.2-6.7-6-7.9c-3.8-1.2-8.4-1.7-13.9-1.3c-8.1,0.4-14.5,2.4-19.3,6.2c-4.8,3.8-7.1,7.8-6.9,12
		c0.2,3,1.5,5.3,4.1,7C702.6,584,706.6,584.7,711.8,584.5z"/>
	<path class="st2" d="M830.6,465c-5.6,0-10.4-2-14.4-6.1c-4-4.1-6-8.9-6-14.5c0-5.6,2-10.4,6-14.4c4-4,8.8-6,14.4-6
		c5.6,0,10.4,2,14.4,6c4,4,6,8.8,6,14.4c0,5.6-2,10.5-6,14.5C841.1,463,836.3,465,830.6,465z M830.9,611.5
		c-11.1,0-16.7-5.8-16.7-17.5v-92.6c0-11.6,5.6-17.5,16.7-17.5c11.1,0,16.7,5.8,16.7,17.5v92.6C847.5,605.7,842,611.5,830.9,611.5z"
		/>
</g>
<g>
	<path class="st2" d="M578.3,658.4c-0.9,0-1.8-0.1-2.6-0.3c-0.8-0.2-1.6-0.5-2.4-1c-0.6-0.4-0.9-0.8-1-1.3c0-0.5,0.1-1,0.5-1.4
		c0.4-0.4,0.8-0.6,1.3-0.6c0.4,0,1,0.2,1.6,0.5c0.8,0.5,1.8,0.7,2.8,0.7c0.8,0,1.4-0.1,1.7-0.3c0.3-0.2,0.5-0.6,0.5-1.1
		c0-0.2-0.1-0.4-0.2-0.6c-0.2-0.2-0.5-0.4-1-0.5c-0.5-0.2-1.3-0.3-2.3-0.5c-1.6-0.3-2.8-0.8-3.6-1.5c-0.8-0.7-1.3-1.8-1.3-3.3
		c0-1,0.3-1.8,0.8-2.5s1.2-1.3,2.1-1.7c0.9-0.4,1.9-0.6,3-0.6c1.5,0,2.9,0.3,4.1,0.8c0.6,0.3,1,0.7,1.1,1.2c0.1,0.5,0,1-0.4,1.4
		c-0.4,0.5-0.8,0.7-1.2,0.7c-0.4,0-1-0.1-1.6-0.3c-0.3-0.1-0.6-0.2-1-0.3c-0.3-0.1-0.7-0.1-1-0.1c-0.7,0-1.2,0.1-1.4,0.3
		c-0.3,0.2-0.4,0.5-0.4,0.8c0,0.2,0.1,0.4,0.2,0.6c0.1,0.2,0.4,0.3,0.8,0.5c0.4,0.2,1.1,0.3,2,0.6c1.8,0.4,3.1,1,4,1.8
		c0.9,0.8,1.4,1.9,1.4,3.3c0,1.6-0.6,2.8-1.8,3.6S580.2,658.4,578.3,658.4z"/>
	<path class="st2" d="M594.2,658.4c-1.4,0-2.7-0.3-3.9-1c-1.1-0.7-2-1.6-2.7-2.8c-0.7-1.2-1-2.6-1-4.3c0-1.7,0.3-3.1,1-4.3
		c0.7-1.2,1.6-2.2,2.7-2.8c1.1-0.7,2.4-1,3.9-1c1.5,0,2.8,0.3,3.9,1c1.1,0.7,2,1.6,2.7,2.8c0.7,1.2,1,2.6,1,4.3c0,1.6-0.3,3.1-1,4.3
		c-0.7,1.2-1.6,2.2-2.7,2.8C597,658.1,595.7,658.4,594.2,658.4z M594.2,654.8c1,0,1.9-0.4,2.5-1.1c0.7-0.8,1-1.9,1-3.3
		c0-1.5-0.3-2.6-1-3.3c-0.7-0.8-1.5-1.1-2.5-1.1c-1,0-1.9,0.4-2.5,1.1c-0.6,0.8-0.9,1.9-0.9,3.3c0,1.4,0.3,2.5,0.9,3.3
		C592.4,654.4,593.2,654.8,594.2,654.8z"/>
	<path class="st2" d="M608.3,658.1c-1.4,0-2-0.7-2-2.1v-9.9h-0.8c-1.4,0-2.1-0.6-2.1-1.7c0-1.2,0.5-1.7,1.4-1.7h1.4v-2.7
		c0-1.9,0.4-3.2,1.3-4c0.9-0.7,2.2-1.1,3.9-1.1c0.9,0,1.6,0.1,2.2,0.3c0.6,0.2,0.9,0.7,0.9,1.5c0,0.5-0.1,0.9-0.3,1.2
		c-0.2,0.4-0.6,0.5-1.3,0.5c-0.1,0-0.3,0-0.5,0s-0.3,0-0.4,0c-0.6,0-1,0.2-1.3,0.5c-0.3,0.4-0.4,0.9-0.4,1.5v2.2h2.1
		c1.4,0,2.1,0.6,2.1,1.7c0,1.2-0.7,1.7-2.1,1.7h-2.1v9.9C610.3,657.4,609.7,658.1,608.3,658.1z"/>
	<path class="st2" d="M623.1,658.4c-1,0-1.9-0.1-2.6-0.3c-0.7-0.2-1.3-0.6-1.6-1.3c-0.4-0.6-0.6-1.5-0.6-2.6v-8.1h-0.8
		c-1.4,0-2.1-0.6-2.1-1.7c0-0.6,0.1-1,0.4-1.3c0.3-0.3,0.8-0.5,1.6-0.5h0.8v-3.2c0-0.7,0.2-1.2,0.5-1.6c0.4-0.4,0.9-0.5,1.5-0.5
		c1.3,0,2,0.7,2,2.1v3.2h2.1c1.4,0,2.1,0.6,2.1,1.7c0,1.2-0.7,1.7-2.1,1.7h-2.1v7.1c0,0.7,0.2,1.1,0.5,1.4c0.3,0.2,0.8,0.4,1.4,0.4
		c0.7,0,1.3,0.1,1.7,0.3c0.4,0.2,0.6,0.7,0.6,1.4c0,0.6-0.2,1-0.5,1.3c-0.3,0.3-0.7,0.5-1.3,0.5
		C624.2,658.4,623.6,658.4,623.1,658.4z"/>
	<path class="st2" d="M634,658.1c-1.2,0-1.9-0.6-2.3-1.8l-3.2-11.3c-0.2-0.7-0.2-1.3,0-1.7c0.2-0.4,0.6-0.6,1.2-0.6h0
		c1.2,0,2,0.6,2.3,1.8l2,8l2.1-8c0.3-1.2,1-1.8,2.2-1.8c1.1,0,1.8,0.6,2.1,1.8l2,8l2.1-8c0.3-1.2,1.1-1.8,2.3-1.8
		c0.6,0,1,0.2,1.3,0.6c0.2,0.4,0.2,1,0,1.7l-3.2,11.3c-0.4,1.2-1.1,1.8-2.3,1.8c-1.2,0-1.9-0.6-2.2-1.8l-2.1-8.1l-2.1,8.1
		C635.9,657.5,635.1,658.1,634,658.1z"/>
	<path class="st2" d="M656.5,658.3c-1.7,0.1-3.1-0.3-4.2-1.1c-1.1-0.8-1.7-2-1.7-3.5c0-1.1,0.3-2,1-2.8c0.7-0.8,1.5-1.4,2.5-1.8
		c1-0.4,2.1-0.7,3.2-0.7c0.5,0,1,0,1.4,0.1c0.5,0.1,0.9,0.3,1.3,0.5v-1c0-0.9-0.2-1.5-0.6-1.8c-0.4-0.3-0.9-0.4-1.6-0.4
		c-0.6,0-1.2,0.1-1.8,0.2c-0.6,0.1-1.2,0.3-1.8,0.6c-0.6,0.3-1.2,0.3-1.6,0.3c-0.4-0.1-0.8-0.4-1.1-0.9c-0.3-0.5-0.3-1-0.2-1.4
		c0.1-0.5,0.5-0.8,1.2-1.1c0.8-0.3,1.6-0.6,2.5-0.8c0.9-0.2,1.8-0.3,2.8-0.3c2,0,3.5,0.4,4.5,1.2c1,0.8,1.5,2.3,1.5,4.4v6.7
		c0,0.2,0,0.4,0,0.5c0.1,0.3,0.2,0.5,0.4,0.6c0.2,0.1,0.4,0.2,0.6,0.2c0.2,0,0.4,0.1,0.5,0.1c0.1,0.1,0.2,0.2,0.2,0.4
		c0,0.4-0.1,0.8-0.3,1.1s-0.6,0.5-1.1,0.6c-0.2,0-0.5,0.1-0.7,0.1c-0.3,0-0.5,0-0.8,0c-1.3,0-2.1-0.4-2.4-1.3
		C659.2,657.7,658,658.2,656.5,658.3z M656.4,654.8c1.1-0.1,2-0.3,2.7-0.7c0.7-0.4,1-0.9,0.9-1.6c0-0.5-0.3-0.8-0.7-1
		c-0.5-0.1-1-0.2-1.7-0.2c-1,0-1.8,0.3-2.3,0.8c-0.6,0.5-0.9,0.9-0.8,1.5c0,0.4,0.2,0.6,0.5,0.9
		C655.3,654.7,655.8,654.8,656.4,654.8z"/>
	<path class="st2" d="M670.4,658.1c-1.3,0-2-0.7-2-2.1v-11.3c0-1.4,0.7-2.1,2.1-2.1c0.4,0,0.9,0.1,1.2,0.3c0.4,0.2,0.5,0.6,0.5,1.3
		v0.5c0.4-0.8,1-1.4,1.8-1.8c0.8-0.5,1.6-0.7,2.5-0.7c0.7,0,1.2,0.2,1.6,0.6c0.4,0.4,0.5,0.9,0.5,1.6c0,0.6-0.2,1-0.5,1.3
		c-0.3,0.3-0.7,0.4-1,0.4c-0.2,0-0.4,0-0.6,0c-0.2,0-0.4,0-0.7,0c-1,0-1.8,0.3-2.5,0.9c-0.7,0.6-1,1.6-1,2.8v6.2
		C672.4,657.4,671.8,658.1,670.4,658.1z"/>
	<path class="st2" d="M687.6,658.4c-2.3,0-4.1-0.7-5.5-2c-1.4-1.3-2.1-3.4-2.1-6.1c0-1.7,0.3-3.1,0.9-4.4c0.6-1.2,1.5-2.1,2.6-2.8
		c1.1-0.7,2.4-1,3.9-1c1.5,0,2.7,0.3,3.7,1c1,0.7,1.8,1.5,2.3,2.6c0.5,1,0.8,2.1,0.8,3.3c0,0.9-0.2,1.5-0.5,1.8
		c-0.4,0.3-0.9,0.4-1.6,0.4h-8.2c0.1,1.4,0.5,2.4,1.2,2.9c0.7,0.5,1.5,0.8,2.6,0.8c1.1,0,2-0.3,2.7-1c0.5-0.5,0.9-0.8,1.4-1
		c0.4-0.1,0.9-0.1,1.3,0.3c0.5,0.3,0.8,0.8,0.8,1.3c0.1,0.5-0.2,1.1-0.7,1.6c-0.7,0.8-1.6,1.4-2.5,1.7
		C689.7,658.2,688.7,658.4,687.6,658.4z M684,648.1h6.1c-0.4-1.8-1.4-2.8-2.9-2.8c-0.9,0-1.6,0.2-2.1,0.6
		C684.6,646.4,684.3,647.1,684,648.1z"/>
	<path class="st2" d="M710,658.1c-1.4,0-2-0.7-2-2.1v-9.9h-0.8c-1.4,0-2.1-0.6-2.1-1.7c0-1.2,0.5-1.7,1.4-1.7h1.4v-2.7
		c0-1.9,0.4-3.2,1.3-4c0.9-0.7,2.2-1.1,3.9-1.1c0.9,0,1.6,0.1,2.2,0.3c0.6,0.2,0.9,0.7,0.9,1.5c0,0.5-0.1,0.9-0.3,1.2
		c-0.2,0.4-0.6,0.5-1.3,0.5c-0.1,0-0.3,0-0.5,0c-0.2,0-0.3,0-0.4,0c-0.6,0-1,0.2-1.3,0.5c-0.3,0.4-0.4,0.9-0.4,1.5v2.2h2.1
		c1.4,0,2.1,0.6,2.1,1.7c0,1.2-0.7,1.7-2.1,1.7H712v9.9C712,657.4,711.3,658.1,710,658.1z"/>
	<path class="st2" d="M720.8,640.3c-0.7,0-1.3-0.2-1.8-0.7c-0.5-0.5-0.7-1.1-0.7-1.8s0.2-1.3,0.7-1.8c0.5-0.5,1.1-0.7,1.8-0.7
		c0.7,0,1.3,0.2,1.8,0.7c0.5,0.5,0.7,1.1,0.7,1.8s-0.2,1.3-0.7,1.8C722.1,640,721.5,640.3,720.8,640.3z M720.9,658.1
		c-1.4,0-2-0.7-2-2.1v-11.3c0-1.4,0.7-2.1,2-2.1c1.4,0,2,0.7,2,2.1V656C722.9,657.4,722.2,658.1,720.9,658.1z"/>
	<path class="st2" d="M729,658.1c-1.3,0-2-0.7-2-2.1v-11.3c0-1.4,0.6-2.1,1.8-2.1c1.2,0,1.9,0.3,1.9,0.9l0.1,0.9
		c0.4-0.6,1-1,1.7-1.5c0.7-0.4,1.5-0.6,2.4-0.6c1.6,0,2.9,0.5,3.9,1.5c1,1,1.5,2.6,1.5,4.6v7.7c0,1.4-0.7,2.1-2,2.1
		c-1.3,0-2-0.7-2-2.1v-6.7c0-1.1-0.2-2-0.7-2.6c-0.4-0.6-1-0.9-1.8-0.9c-0.8,0-1.5,0.3-2,0.9c-0.5,0.6-0.8,1.5-0.8,2.8v6.4
		C731.1,657.4,730.4,658.1,729,658.1z"/>
	<path class="st2" d="M749.4,658.3c-1.7,0.1-3.1-0.3-4.2-1.1c-1.1-0.8-1.7-2-1.7-3.5c0-1.1,0.3-2,1-2.8c0.7-0.8,1.5-1.4,2.5-1.8
		c1-0.4,2.1-0.7,3.2-0.7c0.5,0,1,0,1.4,0.1c0.5,0.1,0.9,0.3,1.3,0.5v-1c0-0.9-0.2-1.5-0.6-1.8c-0.4-0.3-0.9-0.4-1.6-0.4
		c-0.6,0-1.2,0.1-1.8,0.2c-0.6,0.1-1.2,0.3-1.8,0.6c-0.6,0.3-1.2,0.3-1.6,0.3c-0.4-0.1-0.8-0.4-1.1-0.9c-0.3-0.5-0.3-1-0.2-1.4
		c0.1-0.5,0.5-0.8,1.2-1.1c0.8-0.3,1.6-0.6,2.5-0.8c0.9-0.2,1.8-0.3,2.8-0.3c2,0,3.5,0.4,4.5,1.2c1,0.8,1.5,2.3,1.5,4.4v6.7
		c0,0.2,0,0.4,0,0.5c0.1,0.3,0.2,0.5,0.4,0.6c0.2,0.1,0.4,0.2,0.6,0.2c0.2,0,0.4,0.1,0.5,0.1c0.1,0.1,0.2,0.2,0.2,0.4
		c0,0.4-0.1,0.8-0.3,1.1s-0.6,0.5-1.1,0.6c-0.2,0-0.5,0.1-0.7,0.1c-0.3,0-0.5,0-0.8,0c-1.3,0-2.1-0.4-2.4-1.3
		C752.1,657.7,750.9,658.2,749.4,658.3z M749.3,654.8c1.1-0.1,2-0.3,2.7-0.7c0.7-0.4,1-0.9,0.9-1.6c0-0.5-0.3-0.8-0.7-1
		c-0.5-0.1-1-0.2-1.7-0.2c-1,0-1.8,0.3-2.3,0.8c-0.6,0.5-0.9,0.9-0.8,1.5c0,0.4,0.2,0.6,0.5,0.9
		C748.2,654.7,748.7,654.8,749.3,654.8z"/>
	<path class="st2" d="M763.3,658.1c-1.3,0-2-0.7-2-2.1v-11.3c0-1.4,0.6-2.1,1.8-2.1c1.2,0,1.9,0.3,1.9,0.9l0.1,0.9
		c0.4-0.6,1-1,1.7-1.5c0.7-0.4,1.5-0.6,2.4-0.6c1.6,0,2.9,0.5,3.9,1.5c1,1,1.5,2.6,1.5,4.6v7.7c0,1.4-0.7,2.1-2,2.1
		c-1.3,0-2-0.7-2-2.1v-6.7c0-1.1-0.2-2-0.7-2.6c-0.4-0.6-1-0.9-1.8-0.9c-0.8,0-1.5,0.3-2,0.9c-0.5,0.6-0.8,1.5-0.8,2.8v6.4
		C765.3,657.4,764.7,658.1,763.3,658.1z"/>
	<path class="st2" d="M785.1,658.4c-1.4,0-2.7-0.3-3.9-1c-1.1-0.7-2-1.6-2.7-2.8c-0.7-1.2-1-2.6-1-4.3c0-1.7,0.3-3.1,1-4.3
		c0.7-1.2,1.6-2.2,2.7-2.8c1.1-0.7,2.4-1,3.9-1c1.8,0,3.3,0.5,4.6,1.5c0.6,0.4,0.8,0.9,0.8,1.4c-0.1,0.5-0.3,1-0.9,1.3
		c-0.5,0.4-1,0.5-1.3,0.5c-0.4,0-0.9-0.3-1.5-0.6c-0.5-0.3-1.1-0.5-1.7-0.5c-1,0-1.9,0.4-2.5,1.1c-0.6,0.8-0.9,1.9-0.9,3.3
		c0,1.4,0.3,2.5,0.9,3.3c0.6,0.8,1.5,1.1,2.5,1.1c0.6,0,1.2-0.1,1.7-0.4c0.6-0.3,1-0.6,1.4-0.7c0.4-0.1,0.9,0,1.4,0.4
		c0.5,0.4,0.8,0.8,0.9,1.3c0.1,0.5-0.2,1-0.7,1.4C788.5,657.9,787,658.4,785.1,658.4z"/>
	<path class="st2" d="M796.7,640.3c-0.7,0-1.3-0.2-1.8-0.7c-0.5-0.5-0.7-1.1-0.7-1.8s0.2-1.3,0.7-1.8c0.5-0.5,1.1-0.7,1.8-0.7
		c0.7,0,1.3,0.2,1.8,0.7c0.5,0.5,0.7,1.1,0.7,1.8s-0.2,1.3-0.7,1.8C797.9,640,797.4,640.3,796.7,640.3z M796.7,658.1
		c-1.4,0-2-0.7-2-2.1v-11.3c0-1.4,0.7-2.1,2-2.1c1.4,0,2,0.7,2,2.1V656C798.7,657.4,798.1,658.1,796.7,658.1z"/>
	<path class="st2" d="M809.7,658.4c-2.3,0-4.1-0.7-5.5-2c-1.4-1.3-2.1-3.4-2.1-6.1c0-1.7,0.3-3.1,0.9-4.4c0.6-1.2,1.5-2.1,2.6-2.8
		c1.1-0.7,2.4-1,3.9-1c1.5,0,2.7,0.3,3.7,1c1,0.7,1.8,1.5,2.3,2.6s0.8,2.1,0.8,3.3c0,0.9-0.2,1.5-0.5,1.8c-0.4,0.3-0.9,0.4-1.6,0.4
		h-8.2c0.1,1.4,0.5,2.4,1.2,2.9c0.7,0.5,1.5,0.8,2.6,0.8c1.1,0,2-0.3,2.7-1c0.5-0.5,0.9-0.8,1.4-1c0.4-0.1,0.9-0.1,1.3,0.3
		c0.5,0.3,0.8,0.8,0.8,1.3c0.1,0.5-0.2,1.1-0.7,1.6c-0.7,0.8-1.6,1.4-2.5,1.7C811.9,658.2,810.9,658.4,809.7,658.4z M806.2,648.1
		h6.1c-0.4-1.8-1.4-2.8-2.9-2.8c-0.9,0-1.6,0.2-2.1,0.6C806.8,646.4,806.4,647.1,806.2,648.1z"/>
	<path class="st2" d="M821.6,658.1c-1.3,0-2-0.7-2-2.1v-11.3c0-1.4,0.7-2.1,2.1-2.1c0.4,0,0.9,0.1,1.2,0.3c0.4,0.2,0.5,0.6,0.5,1.3
		v0.5c0.4-0.8,1-1.4,1.8-1.8c0.8-0.5,1.6-0.7,2.5-0.7c0.7,0,1.2,0.2,1.6,0.6c0.4,0.4,0.5,0.9,0.5,1.6c0,0.6-0.2,1-0.5,1.3
		c-0.3,0.3-0.7,0.4-1,0.4c-0.2,0-0.4,0-0.6,0c-0.2,0-0.4,0-0.7,0c-1,0-1.8,0.3-2.5,0.9c-0.7,0.6-1,1.6-1,2.8v6.2
		C823.6,657.4,823,658.1,821.6,658.1z"/>
	<path class="st2" d="M838.7,658.4c-1.4,0-2.7-0.3-3.9-1c-1.1-0.7-2-1.6-2.7-2.8c-0.7-1.2-1-2.6-1-4.3c0-1.7,0.3-3.1,1-4.3
		c0.7-1.2,1.6-2.2,2.7-2.8c1.1-0.7,2.4-1,3.9-1c1.5,0,2.8,0.3,3.9,1c1.1,0.7,2,1.6,2.7,2.8c0.7,1.2,1,2.6,1,4.3c0,1.6-0.3,3.1-1,4.3
		c-0.7,1.2-1.5,2.2-2.7,2.8C841.4,658.1,840.1,658.4,838.7,658.4z M838.7,654.8c1,0,1.9-0.4,2.5-1.1c0.7-0.8,1-1.9,1-3.3
		c0-1.5-0.3-2.6-1-3.3c-0.7-0.8-1.5-1.1-2.5-1.1c-1,0-1.9,0.4-2.5,1.1c-0.6,0.8-0.9,1.9-0.9,3.3c0,1.4,0.3,2.5,0.9,3.3
		C836.8,654.4,837.6,654.8,838.7,654.8z"/>
</g>
<g>
	<path class="st2" d="M475.5,596.2C475.5,596.2,475.5,596.1,475.5,596.2l-0.3,0.8C475.3,596.7,475.4,596.4,475.5,596.2z"/>
	<path class="st2" d="M474.5,598.9c-1.9-0.4,0.6,0-1.3-0.6c-3.1-1-6.1-2.2-8.9-3.6c-1,3.4-2.1,6.8-3.1,10.3
		c-2.7,9.1-5.5,18.2-8.1,27.3c-0.5,1.8-1.3,2.5-3.3,2.5c-67.2-0.1-134.4-0.1-201.6,0c-1.5,0-2.6-0.1-3.1-2
		c-4.3-14.2-8.6-28.3-13-42.4c-0.1-0.2,0-0.4,0-0.3c4-2.7,7.9-5.3,12-8.1c8.1,9.3,18.6,14.8,31.4,15.1c12.9,0.3,23.6-4.6,32.6-14.2
		c20.4,25.3,59.7,26.9,81.4,0.3c18.1,19,44.7,17.4,60.7,2.3c-2.7-2.3-5.3-4.8-7.7-7.5c-5.4,5.4-12.4,8.3-20.9,8.4
		c-11.9,0.1-21-5.3-27-15.5c-1.3-2.1-2.6-3.9-5.4-3.8c-2.9,0-4.3,1.9-5.4,4.2c-13.3,26.7-52.5,27.2-67.6,3.9
		c-0.9-1.4-1.7-2.8-2.4-4.2c-1.1-2.1-2.5-3.7-5.1-3.8c-2.6,0-4,1.5-5.2,3.6c-7.6,13.4-22.8,19.2-37.4,14.1
		c-7.4-2.6-12.9-7.4-16.5-14.3c-1.2-2.3-2.5-4.3-5.3-4.4c-2.8-0.1-4.3,1.8-5.6,4c-5.1,8.7-15,12.8-24.4,10.1
		c-9.6-2.8-15.8-11.4-15.6-21.3c0.2-9.7,7.2-18,17-20.2c1.4-0.3,2.8-0.4,4.8-0.6c6.9,2.8,9.2-2,11.7-7.6c7.4-16.3,20-27.9,35.2-36.8
		c17.4-10.2,36.5-15.8,56.4-18.2c25.7-3.1,51.2-1.9,76.2,5.4c12.6,3.7,24.5,8.7,35.2,15.8c0.9-1.6,2-3.1,3-4.6
		c1.1-1.5,3.2-1.8,4.5-3.2c-11.7-8-24.6-13.8-38.3-17.9c-24.5-7.3-49.5-9.2-74.9-6.9c-21.7,2-42.4,7.2-61.8,17.2
		c-19.3,10.1-35.1,23.8-44.9,43.6c-1,1.9-2,2.5-4.1,2.6c-17.5,0.9-30.9,15-30.8,32.3c0.1,17.2,13.3,31,30.8,31.9
		c2.1,0.1,2.7,1.1,3.2,2.8c4.5,15,9.1,30.1,13.6,45.1c1.5,5.1,2.7,5.9,8.1,5.9c35,0,70.1,0,105.1,0c35.1,0,70.3,0,105.4,0
		c5.2,0,6.5-0.9,7.9-5.8c4.1-13.6,8.4-27.1,12.3-40.7c0-0.1,0.1-0.2,0.1-0.4L474.5,598.9z"/>
</g>
<g>
	<path class="st2" d="M477,591.1c-2.1-0.7-6.3-2.1-8.3-3c-22.1-10.2-37.4-32.5-37.4-58.3c0-11.3,2.9-21.9,8-31.1
		c1.1-1.9,3.7-7.4,5-9.2l-3.3-2c0,0-4.4-2.2-5.5-0.5c-8.7,12.1-13.8,26.9-13.8,42.8c0,32.7,21.4,60.5,50.9,70.1
		c1.9,0.6-0.7,0.2,1.3,0.7L477,591.1z"/>
</g>
<path class="st2" d="M300.2,530.7c0.6-0.3,1.8-0.9,3-1.6c0.5-0.3,0.8-0.9,1.1-1.5c3.5-7,7.1-14,10.5-21.1c1.4-2.9,0.5-5.7-2-7.2
	c-2.4-1.4-5.7-0.8-7,1.7c-3.9,7.5-7.7,15.1-11.3,22.7C292.9,527.1,295.7,530.7,300.2,530.7z M391.2,526.1c-0.2-0.2-0.4-0.4-0.6-0.6
	c-0.1-0.4-0.1-0.8-0.2-1.2c-3.8-7.8-7.5-15.6-11.6-23.2c-1.3-2.4-4-2.7-6.5-1.5c-2.3,1.1-3.7,3.9-2.7,6.2
	c3.6,7.6,7.4,15.2,11.3,22.7c1.2,2.2,3.7,3.1,5.8,2C388.5,529.5,389.8,527.6,391.2,526.1z M336.9,514.4c0,3.5-0.1,6.9,0,10.4
	c0.1,3.6,2.1,5.8,5.3,5.9c3.3,0.1,5.5-2.2,5.5-6c0.1-6.7,0.1-13.5,0-20.2c0-3.6-2.1-5.8-5.3-5.9c-3.3-0.1-5.4,2.2-5.5,6
	C336.8,507.9,336.9,511.2,336.9,514.4z"/>
<path class="st2" d="M300.2,530.7c-4.5,0-7.3-3.6-5.8-6.9c3.6-7.7,7.4-15.2,11.3-22.7c1.3-2.5,4.6-3,7-1.7c2.5,1.4,3.5,4.2,2,7.2
	c-3.4,7.1-7,14.1-10.5,21.1c-0.3,0.5-0.6,1.2-1.1,1.5C302.1,529.8,300.8,530.4,300.2,530.7z"/>
<path class="st2" d="M391.2,526.1c-1.5,1.5-2.7,3.4-4.5,4.3c-2.2,1.1-4.7,0.2-5.8-2c-3.9-7.5-7.7-15.1-11.3-22.7
	c-1.1-2.2,0.4-5.1,2.7-6.2c2.5-1.2,5.2-0.9,6.5,1.5c4.1,7.6,7.8,15.5,11.6,23.2c0.2,0.4,0.2,0.8,0.2,1.2
	C390.8,525.7,391,525.9,391.2,526.1z"/>
<path class="st2" d="M336.9,514.4c0-3.3-0.1-6.5,0-9.8c0.1-3.7,2.2-6,5.5-6c3.1,0.1,5.2,2.3,5.3,5.9c0.1,6.7,0.1,13.5,0,20.2
	c0,3.7-2.3,6-5.5,6c-3.1-0.1-5.2-2.3-5.3-5.9C336.8,521.4,336.9,517.9,336.9,514.4z"/>
<g>
	<path class="st0" d="M1783.6-591.1c-11.1,0-16.7-5.8-16.7-17.5v-143.9c0-11.6,4.8-17.5,14.5-17.5c9.5,0,14.5,1.9,15.1,5.8l0.8,6.1
		c9-10.1,20.1-15.1,33.3-15.1c12,0,22.7,2.6,32,7.8c9.3,5.2,16.7,12.8,22.1,22.7c5.4,10,8.1,22.1,8.1,36.4c0,14.1-2.7,26.1-8.1,36.1
		c-5.4,10-12.7,17.5-22.1,22.7c-9.3,5.2-20,7.8-32,7.8c-11.5,0-21.6-4-30.4-11.9v42.9C1800.3-596.9,1794.8-591.1,1783.6-591.1z
		 M1829.4-669.6c8.5,0,15.6-3.1,21.3-9.4c5.7-6.3,8.6-15.3,8.6-27.1c0-12-2.9-21.1-8.6-27.4c-5.7-6.3-12.8-9.4-21.3-9.4
		c-8.5,0-15.5,3.1-21.2,9.4c-5.6,6.3-8.5,15.4-8.5,27.4c0,11.8,2.8,20.9,8.5,27.1C1813.9-672.8,1820.9-669.6,1829.4-669.6z"/>
	<path class="st0" d="M1958-640.8c-13.9,0.7-25.5-2.3-34.8-9c-9.3-6.7-13.9-16.4-13.9-29.1c0-9,2.7-16.7,8.1-23.1
		c5.4-6.4,12.3-11.5,20.9-15.1c8.6-3.6,17.4-5.5,26.6-5.7c4.1-0.4,7.9,0,11.6,0.9c3.7,1,7.1,2.2,10.3,3.8v-8.5
		c0-7.4-1.6-12.2-4.8-14.4c-3.2-2.2-7.7-3.3-13.5-3.3c-4.8,0-9.7,0.6-14.7,1.7c-5,1.1-9.9,2.7-14.7,4.6c-5.1,2.1-9.5,2.9-13.1,2.2
		c-3.6-0.6-6.7-3-9.1-7c-2.3-4.1-2.8-8-1.6-11.8c1.2-3.8,4.5-6.8,9.8-9.1c6.3-2.8,13.2-5.1,20.5-6.9c7.3-1.8,14.9-2.6,22.9-2.6
		c16.4,0,28.8,3.4,37.3,10.1c8.5,6.7,12.7,18.9,12.7,36.5v55.5c0,1.8,0.1,3,0.3,3.7c0.5,2.5,1.5,4.1,3,4.9c1.5,0.8,3,1.3,4.6,1.6
		c1.6,0.3,3,0.6,4.1,1.1c1.1,0.4,1.7,1.5,1.7,3.3c0,3.4-0.9,6.3-2.8,9c-1.9,2.6-4.9,4.4-9.1,5.3c-1.9,0.4-4,0.7-6.1,0.9
		c-2.1,0.3-4.3,0.4-6.6,0.4c-10.4,0-17-3.5-19.8-10.6C1979.7-645.2,1969.8-641.7,1958-640.8z M1957.2-669.4
		c9.3-0.5,16.8-2.3,22.4-5.4c5.6-3.1,8.2-7.4,7.8-12.8c-0.2-4.1-2.2-6.7-6-7.9c-3.8-1.2-8.4-1.7-13.9-1.3
		c-8.1,0.4-14.5,2.4-19.3,6.2c-4.8,3.8-7.1,7.8-6.9,12c0.2,3,1.5,5.3,4.1,7C1947.9-669.9,1951.9-669.2,1957.2-669.4z"/>
	<path class="st0" d="M2075.9-788.9c-5.6,0-10.4-2-14.4-6.1c-4-4.1-6-8.9-6-14.5c0-5.6,2-10.4,6-14.4c4-4,8.8-6,14.4-6
		c5.6,0,10.4,2,14.4,6c4,4,6,8.8,6,14.4c0,5.6-2,10.5-6,14.5C2086.4-791,2081.6-788.9,2075.9-788.9z M2076.2-642.4
		c-11.1,0-16.7-5.8-16.7-17.5v-92.6c0-11.6,5.6-17.5,16.7-17.5c11.1,0,16.7,5.8,16.7,17.5v92.6
		C2092.9-648.2,2087.3-642.4,2076.2-642.4z"/>
</g>
<g>
	<path class="st1" d="M1823.6-595.5c-0.9,0-1.8-0.1-2.6-0.3c-0.8-0.2-1.6-0.5-2.4-1c-0.6-0.4-0.9-0.8-1-1.3c0-0.5,0.1-1,0.5-1.4
		c0.4-0.4,0.8-0.6,1.3-0.6c0.4,0,1,0.2,1.6,0.5c0.8,0.5,1.8,0.7,2.8,0.7c0.8,0,1.4-0.1,1.7-0.3c0.3-0.2,0.5-0.6,0.5-1.1
		c0-0.2-0.1-0.4-0.2-0.6c-0.2-0.2-0.5-0.4-1-0.5c-0.5-0.2-1.3-0.3-2.3-0.5c-1.6-0.3-2.8-0.8-3.6-1.5c-0.8-0.7-1.3-1.8-1.3-3.3
		c0-1,0.3-1.8,0.8-2.5c0.5-0.7,1.2-1.3,2.1-1.7c0.9-0.4,1.9-0.6,3-0.6c1.5,0,2.9,0.3,4.1,0.8c0.6,0.3,1,0.7,1.1,1.2
		c0.1,0.5,0,1-0.4,1.4c-0.4,0.5-0.8,0.7-1.2,0.7c-0.4,0-1-0.1-1.6-0.3c-0.3-0.1-0.6-0.2-1-0.3c-0.3-0.1-0.7-0.1-1-0.1
		c-0.7,0-1.2,0.1-1.4,0.3c-0.3,0.2-0.4,0.5-0.4,0.8c0,0.2,0.1,0.4,0.2,0.6c0.1,0.2,0.4,0.3,0.8,0.5c0.4,0.2,1.1,0.3,2,0.6
		c1.8,0.4,3.1,1,4,1.8c0.9,0.8,1.4,1.9,1.4,3.3c0,1.6-0.6,2.8-1.8,3.6C1827.1-595.9,1825.5-595.5,1823.6-595.5z"/>
	<path class="st1" d="M1839.6-595.5c-1.4,0-2.7-0.3-3.9-1c-1.1-0.7-2-1.6-2.7-2.8c-0.7-1.2-1-2.6-1-4.3c0-1.7,0.3-3.1,1-4.3
		c0.7-1.2,1.6-2.2,2.7-2.8c1.1-0.7,2.4-1,3.9-1c1.5,0,2.8,0.3,3.9,1c1.1,0.7,2,1.6,2.7,2.8c0.7,1.2,1,2.6,1,4.3c0,1.6-0.3,3.1-1,4.3
		c-0.7,1.2-1.6,2.2-2.7,2.8C1842.3-595.8,1841-595.5,1839.6-595.5z M1839.6-599.2c1,0,1.9-0.4,2.5-1.1c0.7-0.8,1-1.9,1-3.3
		c0-1.5-0.3-2.6-1-3.3c-0.7-0.8-1.5-1.1-2.5-1.1c-1,0-1.9,0.4-2.5,1.1c-0.6,0.8-0.9,1.9-0.9,3.3c0,1.4,0.3,2.5,0.9,3.3
		C1837.7-599.5,1838.5-599.2,1839.6-599.2z"/>
	<path class="st1" d="M1853.7-595.9c-1.4,0-2-0.7-2-2.1v-9.9h-0.8c-1.4,0-2.1-0.6-2.1-1.7s0.5-1.7,1.4-1.7h1.4v-2.7
		c0-1.9,0.4-3.2,1.3-4c0.9-0.7,2.2-1.1,3.9-1.1c0.9,0,1.6,0.1,2.2,0.3c0.6,0.2,0.9,0.7,0.9,1.5c0,0.5-0.1,0.9-0.3,1.2
		c-0.2,0.4-0.6,0.5-1.3,0.5c-0.1,0-0.3,0-0.5,0s-0.3,0-0.4,0c-0.6,0-1,0.2-1.3,0.5c-0.3,0.4-0.4,0.9-0.4,1.5v2.2h2.1
		c1.4,0,2.1,0.6,2.1,1.7s-0.7,1.7-2.1,1.7h-2.1v9.9C1855.7-596.6,1855-595.9,1853.7-595.9z"/>
	<path class="st1" d="M1868.4-595.5c-1,0-1.9-0.1-2.6-0.3c-0.7-0.2-1.3-0.6-1.6-1.3c-0.4-0.6-0.6-1.5-0.6-2.6v-8.1h-0.8
		c-1.4,0-2.1-0.6-2.1-1.7c0-0.6,0.1-1,0.4-1.3c0.3-0.3,0.8-0.5,1.6-0.5h0.8v-3.2c0-0.7,0.2-1.2,0.5-1.6c0.4-0.4,0.9-0.5,1.5-0.5
		c1.3,0,2,0.7,2,2.1v3.2h2.1c1.4,0,2.1,0.6,2.1,1.7s-0.7,1.7-2.1,1.7h-2.1v7.1c0,0.7,0.2,1.1,0.5,1.4c0.3,0.2,0.8,0.4,1.4,0.4
		c0.7,0,1.3,0.1,1.7,0.3c0.4,0.2,0.6,0.7,0.6,1.4c0,0.6-0.2,1-0.5,1.3c-0.3,0.3-0.7,0.5-1.3,0.5
		C1869.5-595.5,1869-595.5,1868.4-595.5z"/>
	<path class="st1" d="M1879.3-595.9c-1.2,0-1.9-0.6-2.3-1.8l-3.2-11.3c-0.2-0.7-0.2-1.3,0-1.7c0.2-0.4,0.6-0.6,1.2-0.6h0
		c1.2,0,2,0.6,2.3,1.8l2,8l2.1-8c0.3-1.2,1-1.8,2.2-1.8c1.1,0,1.8,0.6,2.1,1.8l2,8l2.1-8c0.3-1.2,1.1-1.8,2.3-1.8
		c0.6,0,1,0.2,1.3,0.6c0.2,0.4,0.2,1,0,1.7l-3.2,11.3c-0.4,1.2-1.1,1.8-2.3,1.8c-1.2,0-1.9-0.6-2.2-1.8l-2.1-8.1l-2.1,8.1
		C1881.2-596.5,1880.5-595.9,1879.3-595.9z"/>
	<path class="st1" d="M1901.8-595.7c-1.7,0.1-3.1-0.3-4.2-1.1c-1.1-0.8-1.7-2-1.7-3.5c0-1.1,0.3-2,1-2.8c0.7-0.8,1.5-1.4,2.5-1.8
		c1-0.4,2.1-0.7,3.2-0.7c0.5,0,1,0,1.4,0.1c0.5,0.1,0.9,0.3,1.3,0.5v-1c0-0.9-0.2-1.5-0.6-1.8c-0.4-0.3-0.9-0.4-1.6-0.4
		c-0.6,0-1.2,0.1-1.8,0.2c-0.6,0.1-1.2,0.3-1.8,0.6c-0.6,0.3-1.2,0.3-1.6,0.3c-0.4-0.1-0.8-0.4-1.1-0.9c-0.3-0.5-0.3-1-0.2-1.4
		c0.1-0.5,0.5-0.8,1.2-1.1c0.8-0.3,1.6-0.6,2.5-0.8c0.9-0.2,1.8-0.3,2.8-0.3c2,0,3.5,0.4,4.5,1.2c1,0.8,1.5,2.3,1.5,4.4v6.7
		c0,0.2,0,0.4,0,0.5c0.1,0.3,0.2,0.5,0.4,0.6c0.2,0.1,0.4,0.2,0.6,0.2c0.2,0,0.4,0.1,0.5,0.1c0.1,0.1,0.2,0.2,0.2,0.4
		c0,0.4-0.1,0.8-0.3,1.1s-0.6,0.5-1.1,0.6c-0.2,0-0.5,0.1-0.7,0.1c-0.3,0-0.5,0-0.8,0c-1.3,0-2.1-0.4-2.4-1.3
		C1904.5-596.2,1903.3-595.8,1901.8-595.7z M1901.8-599.1c1.1-0.1,2-0.3,2.7-0.7c0.7-0.4,1-0.9,0.9-1.6c0-0.5-0.3-0.8-0.7-1
		s-1-0.2-1.7-0.2c-1,0-1.8,0.3-2.3,0.8c-0.6,0.5-0.9,0.9-0.8,1.5c0,0.4,0.2,0.6,0.5,0.9C1900.6-599.2,1901.1-599.1,1901.8-599.1z"/>
	<path class="st1" d="M1915.7-595.9c-1.3,0-2-0.7-2-2.1v-11.3c0-1.4,0.7-2.1,2.1-2.1c0.4,0,0.9,0.1,1.2,0.3c0.4,0.2,0.5,0.6,0.5,1.3
		v0.5c0.4-0.8,1-1.4,1.8-1.8c0.8-0.5,1.6-0.7,2.5-0.7c0.7,0,1.2,0.2,1.6,0.6c0.4,0.4,0.5,0.9,0.5,1.6c0,0.6-0.2,1-0.5,1.3
		c-0.3,0.3-0.7,0.4-1,0.4c-0.2,0-0.4,0-0.6,0c-0.2,0-0.4,0-0.7,0c-1,0-1.8,0.3-2.5,0.9c-0.7,0.6-1,1.6-1,2.8v6.2
		C1917.8-596.6,1917.1-595.9,1915.7-595.9z"/>
	<path class="st1" d="M1932.9-595.5c-2.3,0-4.1-0.7-5.5-2c-1.4-1.3-2.1-3.4-2.1-6.1c0-1.7,0.3-3.1,0.9-4.4c0.6-1.2,1.5-2.1,2.6-2.8
		c1.1-0.7,2.4-1,3.9-1c1.5,0,2.7,0.3,3.7,1c1,0.7,1.8,1.5,2.3,2.6s0.8,2.1,0.8,3.3c0,0.9-0.2,1.5-0.5,1.8c-0.4,0.3-0.9,0.4-1.6,0.4
		h-8.2c0.1,1.4,0.5,2.4,1.2,2.9c0.7,0.5,1.5,0.8,2.6,0.8c1.1,0,2-0.3,2.7-1c0.5-0.5,0.9-0.8,1.4-1c0.4-0.1,0.9-0.1,1.3,0.3
		c0.5,0.3,0.8,0.8,0.8,1.3c0.1,0.5-0.2,1.1-0.7,1.6c-0.7,0.8-1.6,1.4-2.5,1.7C1935-595.7,1934-595.5,1932.9-595.5z M1929.4-605.8
		h6.1c-0.4-1.8-1.4-2.8-2.9-2.8c-0.9,0-1.6,0.2-2.1,0.6C1930-607.5,1929.6-606.8,1929.4-605.8z"/>
	<path class="st1" d="M1955.3-595.9c-1.4,0-2-0.7-2-2.1v-9.9h-0.8c-1.4,0-2.1-0.6-2.1-1.7s0.5-1.7,1.4-1.7h1.4v-2.7
		c0-1.9,0.4-3.2,1.3-4c0.9-0.7,2.2-1.1,3.9-1.1c0.9,0,1.6,0.1,2.2,0.3c0.6,0.2,0.9,0.7,0.9,1.5c0,0.5-0.1,0.9-0.3,1.2
		c-0.2,0.4-0.6,0.5-1.3,0.5c-0.1,0-0.3,0-0.5,0s-0.3,0-0.4,0c-0.6,0-1,0.2-1.3,0.5c-0.3,0.4-0.4,0.9-0.4,1.5v2.2h2.1
		c1.4,0,2.1,0.6,2.1,1.7s-0.7,1.7-2.1,1.7h-2.1v9.9C1957.3-596.6,1956.7-595.9,1955.3-595.9z"/>
	<path class="st1" d="M1966.1-613.7c-0.7,0-1.3-0.2-1.8-0.7c-0.5-0.5-0.7-1.1-0.7-1.8s0.2-1.3,0.7-1.8c0.5-0.5,1.1-0.7,1.8-0.7
		c0.7,0,1.3,0.2,1.8,0.7c0.5,0.5,0.7,1.1,0.7,1.8s-0.2,1.3-0.7,1.8C1967.4-613.9,1966.8-613.7,1966.1-613.7z M1966.2-595.9
		c-1.4,0-2-0.7-2-2.1v-11.3c0-1.4,0.7-2.1,2-2.1s2,0.7,2,2.1v11.3C1968.2-596.6,1967.5-595.9,1966.2-595.9z"/>
	<path class="st1" d="M1974.4-595.9c-1.3,0-2-0.7-2-2.1v-11.3c0-1.4,0.6-2.1,1.8-2.1c1.2,0,1.9,0.3,1.9,0.9l0.1,0.9
		c0.4-0.6,1-1,1.7-1.5c0.7-0.4,1.5-0.6,2.4-0.6c1.6,0,2.9,0.5,3.9,1.5c1,1,1.5,2.6,1.5,4.6v7.7c0,1.4-0.7,2.1-2,2.1
		c-1.3,0-2-0.7-2-2.1v-6.7c0-1.1-0.2-2-0.7-2.6c-0.4-0.6-1-0.9-1.8-0.9c-0.8,0-1.5,0.3-2,0.9c-0.5,0.6-0.8,1.5-0.8,2.8v6.4
		C1976.4-596.6,1975.7-595.9,1974.4-595.9z"/>
	<path class="st1" d="M1994.7-595.7c-1.7,0.1-3.1-0.3-4.2-1.1c-1.1-0.8-1.7-2-1.7-3.5c0-1.1,0.3-2,1-2.8c0.7-0.8,1.5-1.4,2.5-1.8
		c1-0.4,2.1-0.7,3.2-0.7c0.5,0,1,0,1.4,0.1c0.5,0.1,0.9,0.3,1.3,0.5v-1c0-0.9-0.2-1.5-0.6-1.8c-0.4-0.3-0.9-0.4-1.6-0.4
		c-0.6,0-1.2,0.1-1.8,0.2c-0.6,0.1-1.2,0.3-1.8,0.6c-0.6,0.3-1.2,0.3-1.6,0.3c-0.4-0.1-0.8-0.4-1.1-0.9c-0.3-0.5-0.3-1-0.2-1.4
		c0.1-0.5,0.5-0.8,1.2-1.1c0.8-0.3,1.6-0.6,2.5-0.8c0.9-0.2,1.8-0.3,2.8-0.3c2,0,3.5,0.4,4.5,1.2c1,0.8,1.5,2.3,1.5,4.4v6.7
		c0,0.2,0,0.4,0,0.5c0.1,0.3,0.2,0.5,0.4,0.6c0.2,0.1,0.4,0.2,0.6,0.2c0.2,0,0.4,0.1,0.5,0.1c0.1,0.1,0.2,0.2,0.2,0.4
		c0,0.4-0.1,0.8-0.3,1.1s-0.6,0.5-1.1,0.6c-0.2,0-0.5,0.1-0.7,0.1c-0.3,0-0.5,0-0.8,0c-1.3,0-2.1-0.4-2.4-1.3
		C1997.4-596.2,1996.2-595.8,1994.7-595.7z M1994.6-599.1c1.1-0.1,2-0.3,2.7-0.7c0.7-0.4,1-0.9,0.9-1.6c0-0.5-0.3-0.8-0.7-1
		c-0.5-0.1-1-0.2-1.7-0.2c-1,0-1.8,0.3-2.3,0.8c-0.6,0.5-0.9,0.9-0.8,1.5c0,0.4,0.2,0.6,0.5,0.9
		C1993.5-599.2,1994-599.1,1994.6-599.1z"/>
	<path class="st1" d="M2008.6-595.9c-1.3,0-2-0.7-2-2.1v-11.3c0-1.4,0.6-2.1,1.8-2.1c1.2,0,1.9,0.3,1.9,0.9l0.1,0.9
		c0.4-0.6,1-1,1.7-1.5c0.7-0.4,1.5-0.6,2.4-0.6c1.6,0,2.9,0.5,3.9,1.5c1,1,1.5,2.6,1.5,4.6v7.7c0,1.4-0.7,2.1-2,2.1
		c-1.3,0-2-0.7-2-2.1v-6.7c0-1.1-0.2-2-0.7-2.6c-0.4-0.6-1-0.9-1.8-0.9c-0.8,0-1.5,0.3-2,0.9c-0.5,0.6-0.8,1.5-0.8,2.8v6.4
		C2010.7-596.6,2010-595.9,2008.6-595.9z"/>
	<path class="st1" d="M2030.5-595.5c-1.4,0-2.7-0.3-3.9-1s-2-1.6-2.7-2.8c-0.7-1.2-1-2.6-1-4.3c0-1.7,0.3-3.1,1-4.3
		c0.7-1.2,1.6-2.2,2.7-2.8c1.1-0.7,2.4-1,3.9-1c1.8,0,3.3,0.5,4.6,1.5c0.6,0.4,0.8,0.9,0.8,1.4c-0.1,0.5-0.3,1-0.9,1.3
		c-0.5,0.4-1,0.5-1.3,0.5c-0.4,0-0.9-0.3-1.5-0.6c-0.5-0.3-1.1-0.5-1.7-0.5c-1,0-1.9,0.4-2.5,1.1c-0.6,0.8-0.9,1.9-0.9,3.3
		c0,1.4,0.3,2.5,0.9,3.3c0.6,0.8,1.5,1.1,2.5,1.1c0.6,0,1.2-0.1,1.7-0.4c0.6-0.3,1-0.6,1.4-0.7c0.4-0.1,0.9,0,1.4,0.4
		c0.5,0.4,0.8,0.8,0.9,1.3c0.1,0.5-0.2,1-0.7,1.4C2033.9-596,2032.3-595.5,2030.5-595.5z"/>
	<path class="st1" d="M2042-613.7c-0.7,0-1.3-0.2-1.8-0.7c-0.5-0.5-0.7-1.1-0.7-1.8s0.2-1.3,0.7-1.8c0.5-0.5,1.1-0.7,1.8-0.7
		c0.7,0,1.3,0.2,1.8,0.7c0.5,0.5,0.7,1.1,0.7,1.8s-0.2,1.3-0.7,1.8C2043.3-613.9,2042.7-613.7,2042-613.7z M2042-595.9
		c-1.4,0-2-0.7-2-2.1v-11.3c0-1.4,0.7-2.1,2-2.1c1.4,0,2,0.7,2,2.1v11.3C2044.1-596.6,2043.4-595.9,2042-595.9z"/>
	<path class="st1" d="M2055-595.5c-2.3,0-4.1-0.7-5.5-2c-1.4-1.3-2.1-3.4-2.1-6.1c0-1.7,0.3-3.1,0.9-4.4c0.6-1.2,1.5-2.1,2.6-2.8
		c1.1-0.7,2.4-1,3.9-1c1.5,0,2.7,0.3,3.7,1c1,0.7,1.8,1.5,2.3,2.6c0.5,1,0.8,2.1,0.8,3.3c0,0.9-0.2,1.5-0.5,1.8
		c-0.4,0.3-0.9,0.4-1.6,0.4h-8.2c0.1,1.4,0.5,2.4,1.2,2.9c0.7,0.5,1.5,0.8,2.6,0.8c1.1,0,2-0.3,2.7-1c0.5-0.5,0.9-0.8,1.4-1
		c0.4-0.1,0.9-0.1,1.3,0.3c0.5,0.3,0.8,0.8,0.8,1.3c0.1,0.5-0.2,1.1-0.7,1.6c-0.7,0.8-1.6,1.4-2.5,1.7
		C2057.2-595.7,2056.2-595.5,2055-595.5z M2051.5-605.8h6.1c-0.4-1.8-1.4-2.8-2.9-2.8c-0.9,0-1.6,0.2-2.1,0.6
		C2052.1-607.5,2051.8-606.8,2051.5-605.8z"/>
	<path class="st1" d="M2066.9-595.9c-1.3,0-2-0.7-2-2.1v-11.3c0-1.4,0.7-2.1,2.1-2.1c0.4,0,0.9,0.1,1.2,0.3c0.4,0.2,0.5,0.6,0.5,1.3
		v0.5c0.4-0.8,1-1.4,1.8-1.8c0.8-0.5,1.6-0.7,2.5-0.7c0.7,0,1.2,0.2,1.6,0.6c0.4,0.4,0.5,0.9,0.5,1.6c0,0.6-0.2,1-0.5,1.3
		c-0.3,0.3-0.7,0.4-1,0.4c-0.2,0-0.4,0-0.6,0c-0.2,0-0.4,0-0.7,0c-1,0-1.8,0.3-2.5,0.9c-0.7,0.6-1,1.6-1,2.8v6.2
		C2069-596.6,2068.3-595.9,2066.9-595.9z"/>
	<path class="st1" d="M2084-595.5c-1.4,0-2.7-0.3-3.9-1s-2-1.6-2.7-2.8c-0.7-1.2-1-2.6-1-4.3c0-1.7,0.3-3.1,1-4.3
		c0.7-1.2,1.6-2.2,2.7-2.8c1.1-0.7,2.4-1,3.9-1c1.5,0,2.8,0.3,3.9,1c1.1,0.7,2,1.6,2.7,2.8c0.7,1.2,1,2.6,1,4.3c0,1.6-0.3,3.1-1,4.3
		c-0.7,1.2-1.5,2.2-2.7,2.8C2086.7-595.8,2085.4-595.5,2084-595.5z M2084-599.2c1,0,1.9-0.4,2.5-1.1c0.7-0.8,1-1.9,1-3.3
		c0-1.5-0.3-2.6-1-3.3c-0.7-0.8-1.5-1.1-2.5-1.1c-1,0-1.9,0.4-2.5,1.1c-0.6,0.8-0.9,1.9-0.9,3.3c0,1.4,0.3,2.5,0.9,3.3
		C2082.1-599.5,2082.9-599.2,2084-599.2z"/>
</g>
<g>
	<path class="st0" d="M1720.8-657.8C1720.8-657.8,1720.8-657.8,1720.8-657.8l-0.3,0.8C1720.6-657.3,1720.7-657.5,1720.8-657.8z"/>
	<path class="st0" d="M1719.8-655c-1.9-0.4,0.6,0-1.3-0.6c-3.1-1-6.1-2.2-8.9-3.6c-1,3.4-2.1,6.8-3.1,10.3
		c-2.7,9.1-5.5,18.2-8.1,27.3c-0.5,1.8-1.3,2.5-3.3,2.5c-67.2-0.1-134.4-0.1-201.6,0c-1.5,0-2.6-0.1-3.1-2
		c-4.3-14.2-8.6-28.3-13-42.4c-0.1-0.2,0-0.4,0-0.3c4-2.7,7.9-5.3,12-8.1c8.1,9.3,18.6,14.8,31.4,15.1c12.9,0.3,23.6-4.6,32.6-14.2
		c20.4,25.3,59.7,26.9,81.4,0.3c18.1,19,44.7,17.4,60.7,2.3c-2.7-2.3-5.3-4.8-7.7-7.5c-5.4,5.4-12.4,8.3-20.9,8.4
		c-11.9,0.1-21-5.3-27-15.5c-1.3-2.1-2.6-3.9-5.4-3.8c-2.9,0-4.3,1.9-5.4,4.2c-13.3,26.7-52.5,27.2-67.6,3.9
		c-0.9-1.4-1.7-2.8-2.4-4.2c-1.1-2.1-2.5-3.7-5.1-3.8c-2.6,0-4,1.5-5.2,3.6c-7.6,13.4-22.8,19.2-37.4,14.1
		c-7.4-2.6-12.9-7.4-16.5-14.3c-1.2-2.3-2.5-4.3-5.3-4.4c-2.8-0.1-4.3,1.8-5.6,4c-5.1,8.7-15,12.8-24.4,10.1
		c-9.6-2.8-15.8-11.4-15.6-21.3c0.2-9.7,7.2-18,17-20.2c1.4-0.3,2.8-0.4,4.8-0.6c6.9,2.8,9.2-2,11.7-7.6c7.4-16.3,20-27.9,35.2-36.8
		c17.4-10.2,36.5-15.8,56.4-18.2c25.7-3.1,51.2-1.9,76.2,5.4c12.6,3.7,24.5,8.7,35.2,15.8c0.9-1.6,2-3.1,3-4.6
		c1.1-1.5,3.2-1.8,4.5-3.2c-11.7-8-24.6-13.8-38.3-17.9c-24.5-7.3-49.5-9.2-74.9-6.9c-21.7,2-42.4,7.2-61.8,17.2
		c-19.3,10.1-35.1,23.8-44.9,43.6c-1,1.9-2,2.5-4.1,2.6c-17.5,0.9-30.9,15-30.8,32.3c0.1,17.2,13.3,31,30.8,31.9
		c2.1,0.1,2.7,1.1,3.2,2.8c4.5,15,9.1,30.1,13.6,45.1c1.5,5.1,2.7,5.9,8.1,5.9c35,0,70.1,0,105.1,0c35.1,0,70.3,0,105.4,0
		c5.2,0,6.5-0.9,7.9-5.8c4.1-13.6,8.4-27.1,12.3-40.7c0-0.1,0.1-0.2,0.1-0.4L1719.8-655z"/>
</g>
<g>
	<path class="st0" d="M1722.3-662.9c-2.1-0.7-6.3-2.1-8.3-3c-22.1-10.2-37.4-32.5-37.4-58.3c0-11.3,2.9-21.9,8-31.1
		c1.1-1.9,3.7-7.4,5-9.2l-3.3-2c0,0-4.4-2.2-5.5-0.5c-8.7,12.1-13.8,26.9-13.8,42.8c0,32.7,21.4,60.5,50.9,70.1
		c1.9,0.6-0.7,0.2,1.3,0.7L1722.3-662.9z"/>
</g>
<path class="st2" d="M1545.5-723.2c0.6-0.3,1.8-0.9,3-1.6c0.5-0.3,0.8-0.9,1.1-1.5c3.5-7,7.1-14,10.5-21.1c1.4-2.9,0.5-5.7-2-7.2
	c-2.4-1.4-5.7-0.8-7,1.7c-3.9,7.5-7.7,15.1-11.3,22.7C1538.2-726.8,1541.1-723.2,1545.5-723.2z M1636.6-727.8
	c-0.2-0.2-0.4-0.4-0.6-0.6c-0.1-0.4-0.1-0.8-0.2-1.2c-3.8-7.8-7.5-15.6-11.6-23.2c-1.3-2.4-4-2.7-6.5-1.5c-2.3,1.1-3.7,3.9-2.7,6.2
	c3.6,7.6,7.4,15.2,11.3,22.7c1.2,2.2,3.7,3.1,5.8,2C1633.8-724.4,1635.1-726.3,1636.6-727.8z M1582.2-739.5c0,3.5-0.1,6.9,0,10.4
	c0.1,3.6,2.1,5.8,5.3,5.9c3.3,0.1,5.5-2.2,5.5-6c0.1-6.7,0.1-13.5,0-20.2c0-3.6-2.1-5.8-5.3-5.9c-3.3-0.1-5.4,2.2-5.5,6
	C1582.2-746,1582.2-742.8,1582.2-739.5z"/>
<path class="st0" d="M1545.5-723.2c-4.5,0-7.3-3.6-5.8-6.9c3.6-7.7,7.4-15.2,11.3-22.7c1.3-2.5,4.6-3,7-1.7c2.5,1.4,3.5,4.2,2,7.2
	c-3.4,7.1-7,14.1-10.5,21.1c-0.3,0.5-0.6,1.2-1.1,1.5C1547.4-724.1,1546.1-723.5,1545.5-723.2z"/>
<path class="st0" d="M1636.6-727.8c-1.5,1.5-2.7,3.4-4.5,4.3c-2.2,1.1-4.7,0.2-5.8-2c-3.9-7.5-7.7-15.1-11.3-22.7
	c-1.1-2.2,0.4-5.1,2.7-6.2c2.5-1.2,5.2-0.9,6.5,1.5c4.1,7.6,7.8,15.5,11.6,23.2c0.2,0.4,0.2,0.8,0.2,1.2
	C1636.2-728.3,1636.4-728,1636.6-727.8z"/>
<path class="st0" d="M1582.2-739.5c0-3.3-0.1-6.5,0-9.8c0.1-3.7,2.2-6,5.5-6c3.1,0.1,5.2,2.3,5.3,5.9c0.1,6.7,0.1,13.5,0,20.2
	c0,3.7-2.3,6-5.5,6c-3.1-0.1-5.2-2.3-5.3-5.9C1582.2-732.6,1582.2-736,1582.2-739.5z"/>
<text transform="matrix(1 0 0 1 -1895.3923 -490.7011)" style="font-family:'MyriadPro-Regular'; font-size:97.875px;">Zen Maru Gothic Black</text>
<text transform="matrix(1 0 0 1 -1895.3923 -619.0946)" style="font-family:'MyriadPro-Regular'; font-size:97.875px;">Font:</text>
<text transform="matrix(1 0 0 1 -1902.8297 -239.4062)" style="font-family:'MyriadPro-Regular'; font-size:97.875px;">Paleta:</text>
<rect x="-1171" y="-308.9" class="st3" width="99.9" height="99.9"/>
<rect x="-908.8" y="-308.9" class="st4" width="99.9" height="99.9"/>
<text transform="matrix(1 0 0 1 -1534.3164 -129.7802)" style="font-family:'MyriadPro-Regular'; font-size:59.8213px;">00b864</text>
<text transform="matrix(1 0 0 1 -1224.6907 -129.7802)" style="font-family:'MyriadPro-Regular'; font-size:67.1251px;">00c540</text>
<g>
	<text transform="matrix(1 0 0 1 -947.1514 -129.7802)" style="font-family:'MyriadPro-Regular'; font-size:67.1251px;">3c3c3c</text>
</g>
<rect x="-651.5" y="-308.9" class="st5" width="99.9" height="99.9"/>
<g>
	<text transform="matrix(1 0 0 1 -706.1786 -129.7805)" style="font-family:'MyriadPro-Regular'; font-size:67.1251px;">00e19f</text>
</g>
<rect x="-2456.4" y="-818.7" style="fill:none;" width="2.8" height="0"/>
</svg>
